<?xml version="1.0" standalone="no"?><!DOCTYPE svg PUBLIC "-//W3C//DTD SVG 1.1//EN" "http://www.w3.org/Graphics/SVG/1.1/DTD/svg11.dtd"><svg t="1635494920710" class="icon" viewBox="0 0 1024 1024" version="1.1" xmlns="http://www.w3.org/2000/svg" p-id="3297" width="16" height="16" xmlns:xlink="http://www.w3.org/1999/xlink"><defs><style type="text/css"></style></defs><path d="M924 75H100C44.8 75 0 119.8 0 175v674c0 55.2 44.8 100 100 100h824c55.2 0 100-44.8 100-100V175c0-55.2-44.8-100-100-100z m0 819H100c-24.8 0-45-20.2-45-45V332h914v517c0 24.8-20.2 45-45 45zM670.5 206c0 22.3-18.1 40.4-40.4 40.4-22.3 0-40.4-18.1-40.4-40.4s18.1-40.4 40.4-40.4c22.3 0 40.4 18.1 40.4 40.4z m249.2 0c0 22.3-18.1 40.4-40.4 40.4-22.3 0-40.4-18.1-40.4-40.4s18.1-40.4 40.4-40.4c22.3 0 40.4 18.1 40.4 40.4z m-124.6 0c0 22.3-18.1 40.4-40.4 40.4-22.3 0-40.4-18.1-40.4-40.4s18.1-40.4 40.4-40.4c22.3 0 40.4 18.1 40.4 40.4zM186 783.5c11.9 10.2 31.3 10.2 43.2 0l152.5-130.8c6-5.1 8.9-11.9 8.9-18.6 0-6.7-3-13.5-8.9-18.6L229.2 484.7c-11.9-10.2-31.3-10.2-43.2 0-11.9 10.2-11.9 26.8 0 37l131 112.4-131 112.3c-11.9 10.2-11.9 26.8 0 37.1z m513.2 5H464.6c-15.2 0-27.5-12.3-27.5-27.5s12.3-27.5 27.5-27.5h234.6c15.2 0 27.5 12.3 27.5 27.5s-12.3 27.5-27.5 27.5z" p-id="3298" fill="#6E6E6E"></path></svg>