<?xml version="1.0" standalone="no"?><!DOCTYPE svg PUBLIC "-//W3C//DTD SVG 1.1//EN" "http://www.w3.org/Graphics/SVG/1.1/DTD/svg11.dtd"><svg t="1635764279858" class="icon" viewBox="0 0 1024 1024" version="1.1" xmlns="http://www.w3.org/2000/svg" p-id="75324" xmlns:xlink="http://www.w3.org/1999/xlink" width="16" height="16"><defs><style type="text/css"></style></defs><path d="M511.637 1.1C229.623 1.1 0.179 230.534 0.179 512.563 0.18 794.576 229.623 1024 511.637 1024s511.452-229.424 511.452-511.437c0-282.018-229.44-511.463-511.452-511.463z m0 951.245c-242.496 0-439.803-197.302-439.803-439.782 0-38.965 5.16-78.206 14.705-114.203 2.011 0.374 4.069-0.834 6.182-0.834h6.06v34.845c0 14.868 13.507 26.947 28.376 26.947 2.518 0 5.62-0.45 7.928-1.095l56.674 56.3c5.645 5.661 14.97 5.661 20.652 0 5.65-5.64 5.742-14.791 0.097-20.452l-54.99-57.457c0.194-1.397 2.882-2.805 2.882-4.243v-8.599c0-11.623 6.689-15.984 18.277-26.246h33.703c6.342 0 12.15-0.466 17.202-3.506 0.604-0.363 1.224 0.046 1.797-0.343 1.182-0.808 2.226-1.387 3.296-2.329 0.476-0.43 1.013-0.552 1.469-1.018l1.254-1.162 115.845-115.784c12.852-12.862 12.852-33.688 0-46.535-12.846-12.846-33.708-10.625-46.565 2.222l-22.438 24.67h-41.683v-34.83c0-0.578 3.619 4.018 3.578-6.255h46.882c8.911 0 16.133-6.49 16.133-15.405s-7.222-15.406-16.133-15.406h-74.449c77.868-61.618 180.58-108.276 293.069-108.276 108.152 0 207.287 36.385 283.953 108.276h-93.5c-0.21 0-0.358-2.278-0.552-2.268-3.297-0.168-6.634-0.255-9.152 2.258l-38.489 37.885c-4.719 4.744-4.75 12.13 0 16.87 4.75 4.734 12.427 4.59 17.167-0.15l30.417-32.305c0.21 0 0.39-1.756 0.599-1.756h18.175c-0.251 10.272-5.272 6.91-5.272 8.624v5.4c0 15.79-10.769 27.06-26.574 27.06h-27.556c-13.61 0-28.038 15.329-28.038 28.913v12.166h-6.208c-8.486 0-14.331 4.37-14.331 12.841v17.975h-17.274c-12.13 0-21.962 8.318-21.962 20.432 0 12.125 9.832 18.769 21.962 18.769 5.364 0 10.18 1.878 13.968-8.4h0.025l2.964 0.758 35.315-31.564h12.54l28.33 26.999c2.338 2.344 6.13 1.674 8.46-0.655 2.349-2.344 2.349-8.4 0-10.743l-23.585-25.873h17.074l6.685 8.64c13.256 13.246 34.757 12.278 48.003-0.963l6.72-7.677h29.271c1.1 0 6.086 3.71 6.086 3.567v17.52c0-0.02-3.424-0.542-3.731-0.542h-26.19c-8.368 0-15.155 7.047-15.155 15.405 0 8.379 6.776 15.406 15.155 15.406h26.19c0.307 0 3.731-0.292 3.731-0.312v10.938c-10.267 15.247-17.878 30.453-33.14 30.453h-69.045c-0.118 0-0.194-0.363-0.302-0.466l-31.011-31.047c-13.256-13.246-34.722-13.271-47.973-0.015l-31.011 31.088c-0.108 0.102-0.18 0.44-0.297 0.44h-18.364c-18.733 0-35.905 14.97-35.905 33.724v67.094c0 18.713 17.167 32.69 35.905 32.69h65.876c24.875 10.268 42.005 25.673 52.288 50.548v122.724c0 18.723 12.237 32.127 30.99 32.127h52.861c18.738 0 29.113-13.404 29.113-32.127V585.641l65.241-62.79 2.396-1.193 1.33-0.722 2.196-0.071c5.38-6.009 11-13.86 11-22.551v-67.07c0-13.322-11.67-23.45-22.848-33.713h31.047c0.89 20.54 15.585 30.807 33.754 30.807h33.125c4.714 30.811 7.31 54.688 7.31 81.799 0.025 242.49-197.236 442.208-439.757 442.208z" p-id="75325" fill="#6E6E6E"></path><path d="M600.018 269.433c5.01 0 10.226-4.059 10.226-9.07v-22.407c0-5.016-5.226-9.075-10.226-9.075-5.01 0-10.247 4.059-10.247 9.075v22.407c0 5.011 5.241 9.07 10.247 9.07zM300.439 494.296h-48.966c-18.671 0-30.187 15.099-30.187 33.79v127.229c0 18.666 11.516 33.473 30.187 33.473h20.995v128.585c0 18.134 17.699 32.808 35.822 32.808s35.828-14.685 35.828-32.808V739.95h-1.224c18.692 0 31.928-10.308 31.928-28.975v-22.197h9.832c18.692 0 31.108-14.797 31.108-33.473v-43.25c0-0.357 0.492-0.618 0.092-1.018L300.44 494.297zM536.793 156.5c0-18.38-14.925-30.694-33.325-30.694H463.71c-18.38 0-30.786 13.23-30.786 31.615 0 2.456-6.925 3.163 3.311 5.476v34.553c0 10.769 4.576 19.506 15.355 19.506 10.774 0 15.354-8.737 15.354-19.506v-10.236h36.519c18.405 0.005 33.33-12.31 33.33-30.715zM547.229 207.692h15.912c4.647 0 8.455-0.44 8.455-5.118s-3.808-5.119-8.465-5.119h-15.913c-4.667 0-8.434 0.45-8.434 5.119s3.767 5.118 8.445 5.118zM377.468 204.508c5.22-5.22 5.22-13.686 0-18.917l-36.585-36.564c-5.226-5.22-13.66-5.22-18.902 0-5.225 5.21-5.225 13.696 0 18.917l36.57 36.574c5.205 5.221 13.691 5.221 18.917-0.01zM840.563 632.437c-7.288 0-15.375 5.906-15.375 13.194v41.243c0 7.278 8.087 13.18 15.375 13.18 7.273 0 15.345-5.902 15.345-13.18V645.63c0-7.273-8.072-13.194-15.345-13.194z" p-id="75326" fill="#6E6E6E"></path></svg>