<?xml version="1.0" standalone="no"?><!DOCTYPE svg PUBLIC "-//W3C//DTD SVG 1.1//EN" "http://www.w3.org/Graphics/SVG/1.1/DTD/svg11.dtd"><svg t="1635496256748" class="icon" viewBox="0 0 1024 1024" version="1.1" xmlns="http://www.w3.org/2000/svg" p-id="24669" xmlns:xlink="http://www.w3.org/1999/xlink" width="16" height="16"><defs><style type="text/css"></style></defs><path d="M65.06656 859.008928V122.715561C65.06656 54.915214 229.873559 0 433.213243 0c197.510696 0 358.697585 51.847325 367.717179 116.94793L801.359927 122.715561v368.146684h-61.357781v-54.915214C674.165248 469.080232 561.389647 490.862245 433.213243 490.862245c-128.053688 0-240.829289-21.782012-306.788902-54.853856V613.577806c0 33.869495 137.380071 61.357781 306.788902 61.35778v61.357781c-128.053688 0-240.829289-21.782012-306.788902-54.853856V859.008928l306.788902-0.061358V859.008928H126.424341c0 33.869495 137.380071 61.357781 306.788902 61.357781v61.35778c-203.339685 0-368.146683-54.915214-368.146683-122.715561zM740.002146 190.515909C674.165248 223.64911 561.389647 245.431122 433.213243 245.431122c-128.053688 0-240.829289-21.782012-306.788902-54.853856V368.146683c0 33.869495 137.380071 61.357781 306.788902 61.357781s306.788903-27.488286 306.788903-61.357781V190.515909zM433.213243 61.357781c-169.408832 0-306.788903 27.488286-306.788902 61.35778s137.380071 61.357781 306.788902 61.357781 306.788903-27.488286 306.788903-61.357781-137.380071-61.357781-306.788903-61.35778z" p-id="24670" fill="#6E6E6E"></path><path d="M921.682535 997.493439a214.752232 214.752232 0 0 1 0 26.506561v-26.506561zM711.225347 552.220025a153.394451 153.394451 0 0 1 98.295165 271.140033A212.972856 212.972856 0 0 1 920.14859 981.724489h-61.787285a153.14902 153.14902 0 0 0-150.510636-122.715561c-74.549703 0-136.705135 52.767691-150.510635 122.715561H494.571024a213.341003 213.341003 0 0 1 115.352627-160.941458A153.394451 153.394451 0 0 1 711.163989 552.220025z m0 61.357781a92.036671 92.036671 0 1 0 0 184.073341 92.036671 92.036671 0 0 0 0-184.073341z" p-id="24671" fill="#6E6E6E"></path></svg>