<?xml version="1.0" standalone="no"?><!DOCTYPE svg PUBLIC "-//W3C//DTD SVG 1.1//EN" "http://www.w3.org/Graphics/SVG/1.1/DTD/svg11.dtd"><svg t="1635495534166" class="icon" viewBox="0 0 1024 1024" version="1.1" xmlns="http://www.w3.org/2000/svg" p-id="11040" width="16" height="16" xmlns:xlink="http://www.w3.org/1999/xlink"><defs><style type="text/css"></style></defs><path d="M511.978736-0.021328A512 512 0 1 0 1024.000064 512.085312 512.575856 512.575856 0 0 0 511.978736-0.021328z m0 976.651837A464.651837 464.651837 0 1 1 976.651901 512.085312a465.185037 465.185037 0 0 1-464.673165 464.545197z m202.616013-476.488878h-141.276681V167.42481a11.837041 11.837041 0 0 0-21.328002-6.995584L299.935747 505.025744a11.815713 11.815713 0 0 0 9.554944 18.832625h141.298009v332.716821a11.794385 11.794385 0 0 0 8.168625 11.239856 11.517121 11.517121 0 0 0 3.689744 0.597184 11.837041 11.837041 0 0 0 9.533616-4.841456l252.075648-344.617846a11.794385 11.794385 0 0 0-9.725568-18.811297z" p-id="11041" fill="#6E6E6E"></path></svg>