<?xml version="1.0" standalone="no"?><!DOCTYPE svg PUBLIC "-//W3C//DTD SVG 1.1//EN" "http://www.w3.org/Graphics/SVG/1.1/DTD/svg11.dtd"><svg t="1637051265110" class="icon" viewBox="0 0 1024 1024" version="1.1" xmlns="http://www.w3.org/2000/svg" p-id="2329" width="16" height="16" xmlns:xlink="http://www.w3.org/1999/xlink"><defs><style type="text/css"></style></defs><path d="M887.466667 789.333333H136.533333c-76.8 0-136.533333-59.733333-136.533333-136.533333v-469.333333c0-76.8 59.733333-136.533333 136.533333-136.533334h750.933334c76.8 0 136.533333 59.733333 136.533333 136.533334v469.333333c0 76.8-59.733333 136.533333-136.533333 136.533333zM136.533333 132.266667c-29.866667 0-51.2 21.333333-51.2 51.2v469.333333c0 29.866667 21.333333 51.2 51.2 51.2h750.933334c29.866667 0 51.2-21.333333 51.2-51.2v-469.333333c0-29.866667-21.333333-51.2-51.2-51.2H136.533333zM699.733333 977.066667H324.266667c-25.6 0-42.666667-17.066667-42.666667-42.666667s17.066667-42.666667 42.666667-42.666667h375.466666c25.6 0 42.666667 17.066667 42.666667 42.666667s-17.066667 42.666667-42.666667 42.666667z" fill="#6E6E6E" p-id="2330"></path><path d="M512 977.066667c-25.6 0-42.666667-17.066667-42.666667-42.666667v-187.733333c0-25.6 17.066667-42.666667 42.666667-42.666667s42.666667 17.066667 42.666667 42.666667v187.733333c0 25.6-17.066667 42.666667-42.666667 42.666667zM716.8 371.2c-4.266667-8.533333-8.533333-12.8-17.066667-17.066667l-29.866666-4.266666 17.066666-25.6c4.266667-8.533333 4.266667-17.066667 0-25.6 0-4.266667-8.533333-17.066667-29.866666-34.133334-17.066667-17.066667-29.866667-25.6-34.133334-29.866666-8.533333-4.266667-17.066667-4.266667-25.6 0l-25.6 17.066666-4.266666-29.866666c4.266667 0-4.266667-8.533333-12.8-8.533334 0 0-17.066667-4.266667-42.666667-4.266666-29.866667 0-46.933333 4.266667-46.933333 4.266666-8.533333 4.266667-12.8 8.533333-17.066667 17.066667l-4.266667 29.866667-21.333333-17.066667c-8.533333-4.266667-17.066667-4.266667-25.6 0-4.266667 0-17.066667 8.533333-34.133333 29.866667-21.333333 17.066667-29.866667 29.866667-29.866667 29.866666-4.266667 8.533333-4.266667 17.066667 0 25.6l17.066667 25.6-25.6 4.266667c-8.533333 0-17.066667 8.533333-17.066667 17.066667 0 0-4.266667 17.066667-4.266667 46.933333 0 25.6 4.266667 42.666667 4.266667 42.666667 4.266667 8.533333 8.533333 12.8 17.066667 17.066666l29.866666 4.266667-17.066666 25.6c-4.266667 8.533333-4.266667 17.066667 0 25.6 0 4.266667 8.533333 17.066667 29.866666 34.133333 17.066667 17.066667 29.866667 25.6 34.133334 29.866667 8.533333 4.266667 17.066667 4.266667 25.6 0l25.6-17.066667 4.266666 29.866667c0 8.533333 8.533333 17.066667 17.066667 17.066667 0 0 17.066667 4.266667 46.933333 4.266666 25.6 0 42.666667-4.266667 42.666667-4.266666 8.533333-4.266667 12.8-8.533333 17.066667-17.066667l4.266666-29.866667 25.6 17.066667c8.533333 4.266667 17.066667 4.266667 25.6 0 4.266667 0 17.066667-8.533333 34.133334-29.866667 21.333333-21.333333 29.866667-34.133333 29.866666-34.133333 4.266667-8.533333 4.266667-17.066667 0-25.6l-17.066666-25.6 29.866666-4.266667c8.533333 0 17.066667-8.533333 17.066667-17.066666 4.266667-12.8 8.533333-29.866667 8.533333-42.666667-17.066667-25.6-21.333333-42.666667-21.333333-51.2z m-243.2 170.666667c-4.266667 0-8.533333-4.266667-8.533333-4.266667s-4.266667-4.266667-12.8-4.266667c-8.533333-4.266667-17.066667-4.266667-21.333334 4.266667l-21.333333 17.066667c-4.266667-4.266667-8.533333-8.533333-17.066667-12.8-4.266667-4.266667-8.533333-12.8-12.8-17.066667l17.066667-21.333333c4.266667-8.533333 4.266667-17.066667 4.266667-21.333334-4.266667-8.533333-8.533333-12.8-8.533334-12.8s-4.266667-4.266667-4.266666-12.8c-4.266667-8.533333-8.533333-12.8-17.066667-12.8l-25.6-4.266666v-21.333334-21.333333l25.6-4.266667c8.533333 0 12.8-8.533333 17.066667-12.8 0-4.266667 4.266667-8.533333 4.266666-12.8 0 0 4.266667-4.266667 4.266667-8.533333 4.266667-8.533333 4.266667-17.066667 0-21.333333l-17.066667-21.333334c4.266667-4.266667 8.533333-8.533333 12.8-17.066666 4.266667-4.266667 12.8-8.533333 17.066667-12.8l21.333333 17.066666c4.266667 4.266667 17.066667 4.266667 21.333334 4.266667l8.533333-8.533333s4.266667-4.266667 12.8-4.266667c8.533333-4.266667 12.8-8.533333 12.8-17.066667l4.266667-25.6h42.666666l4.266667 25.6c0 8.533333 8.533333 12.8 12.8 17.066667 4.266667 4.266667 8.533333 4.266667 8.533333 4.266667s4.266667 4.266667 12.8 4.266666c8.533333 4.266667 17.066667 4.266667 21.333334-4.266666l21.333333-17.066667c4.266667 4.266667 8.533333 8.533333 17.066667 12.8 4.266667 4.266667 8.533333 12.8 12.8 17.066667l-17.066667 21.333333c-4.266667 8.533333-4.266667 17.066667-4.266667 21.333333 4.266667 4.266667 4.266667 8.533333 4.266667 8.533334s4.266667 4.266667 4.266667 12.8c4.266667 8.533333 8.533333 12.8 17.066666 12.8l25.6 4.266666v42.666667l-25.6 4.266667c-8.533333 0-12.8 8.533333-17.066666 12.8 0 4.266667-4.266667 8.533333-4.266667 8.533333s-4.266667 8.533333-4.266667 12.8c-4.266667 8.533333-4.266667 17.066667 4.266667 21.333333l17.066667 21.333334c-4.266667 4.266667-8.533333 8.533333-12.8 17.066666-4.266667 4.266667-8.533333 8.533333-17.066667 12.8l-21.333333-17.066666c-4.266667-4.266667-17.066667-4.266667-21.333334-4.266667-4.266667 4.266667-8.533333 4.266667-8.533333 4.266667s-4.266667 4.266667-12.8 4.266666c-8.533333 4.266667-12.8 8.533333-12.8 17.066667l-4.266667 25.6h-42.666666l-4.266667-25.6s-4.266667-8.533333-12.8-8.533333z m-115.2-59.733334z m217.6-217.6z m-128 307.2z" fill="#6E6E6E" p-id="2331"></path><path d="M618.666667 418.133333c0-59.733333-46.933333-106.666667-106.666667-106.666666S405.333333 358.4 405.333333 418.133333s46.933333 106.666667 106.666667 106.666667c59.733333 4.266667 106.666667-46.933333 106.666667-106.666667z m-170.666667 0c0-34.133333 29.866667-64 64-64s64 29.866667 64 64-29.866667 64-64 64-64-29.866667-64-64z" fill="#6E6E6E" p-id="2332"></path></svg>