<?xml version="1.0" standalone="no"?><!DOCTYPE svg PUBLIC "-//W3C//DTD SVG 1.1//EN" "http://www.w3.org/Graphics/SVG/1.1/DTD/svg11.dtd"><svg t="1639980478577" class="icon" viewBox="0 0 1024 1024" version="1.1" xmlns="http://www.w3.org/2000/svg" p-id="7819" width="14" height="14" xmlns:xlink="http://www.w3.org/1999/xlink"><defs><style type="text/css"></style></defs><path d="M768 0a128 128 0 0 1 128 128v768a128 128 0 0 1-128 128l-5.034667-0.298667a41.301333 41.301333 0 0 1-22.4-10.112l-200.277333-177.792a42.666667 42.666667 0 0 0-56.618667 0l-201.088 178.133334A40.106667 40.106667 0 0 1 256 1024a128 128 0 0 1-128-128V128a128 128 0 0 1 128-128z m0 85.333333H256a42.666667 42.666667 0 0 0-42.666667 42.666667v768a42.666667 42.666667 0 0 0 28.288 40.192l1.621334 0.426667 242.432-190.592a42.666667 42.666667 0 0 1 52.693333 0l242.773333 190.506666 1.28-0.341333c14.933333-5.376 26.026667-18.901333 27.946667-35.2L810.666667 896V128a42.666667 42.666667 0 0 0-42.666667-42.666667z m-85.333333 384a42.666667 42.666667 0 0 1 0 85.333334H384a42.666667 42.666667 0 0 1 0-85.333334h298.666667z m-85.333334-213.333333a42.666667 42.666667 0 0 1 0 85.333333H384a42.666667 42.666667 0 0 1 0-85.333333h213.333333z" fill="#008df0" p-id="7820"></path></svg>