<?xml version="1.0" standalone="no"?><!DOCTYPE svg PUBLIC "-//W3C//DTD SVG 1.1//EN" "http://www.w3.org/Graphics/SVG/1.1/DTD/svg11.dtd"><svg t="1635763510493" class="icon" viewBox="0 0 1028 1024" version="1.1" xmlns="http://www.w3.org/2000/svg" p-id="58940" xmlns:xlink="http://www.w3.org/1999/xlink" width="16.0625" height="16"><defs><style type="text/css"></style></defs><path d="M299.008 567.296q-21.504 2.048-48.128 8.704t-50.176 22.016-39.424 40.96-15.872 63.488q0 38.912 17.92 64.512t45.056 41.472 58.88 23.04 59.392 8.192q49.152 3.072 104.448 5.12t130.048 0q52.224-2.048 80.384-5.632t41.472-8.704q15.36-5.12 16.384-12.288l140.288-10.24q0 32.768-20.992 59.904t-57.344 47.104-86.016 31.232-105.984 11.264q-33.792 0-73.216-0.512t-79.36-0.512l-76.8 0q-37.888 0-66.56-1.024-17.408 0-44.032-4.608t-55.808-14.848-59.392-27.648-54.272-44.032-40.448-63.488-18.432-87.04 11.264-89.088 36.352-68.608 53.76-50.176 63.488-33.28 65.024-18.432 57.856-5.632l67.584 0 59.392 0 66.56 0 87.04 0q75.776 0 124.416 21.504t76.288 45.056q20.48-28.672 33.792-48.128t23.552-34.304 18.432-28.16 18.432-30.72q10.24-19.456 18.944-45.056t8.704-52.736-11.776-52.224-42.496-43.52q-30.72-17.408-59.392-18.944t-53.76 7.168-45.568 25.6-33.792 36.352q-14.336 20.48-31.232 45.056t-32.256 48.128q-18.432 26.624-35.84 54.272l-150.528 0q32.768-51.2 63.488-97.28 13.312-19.456 27.136-39.936t26.624-39.424 24.576-35.328 20.992-27.648q18.432-22.528 51.712-52.224t79.36-48.128 103.936-16.896 124.416 41.472q44.032 26.624 68.096 59.392t33.792 68.608 7.68 72.704-11.264 70.144-22.016 60.928-25.088 46.08q-35.84 55.296-72.704 108.544t-78.848 111.616q-17.408 24.576-49.152 52.224t-75.776 44.544-98.816 17.92-119.296-28.672q-14.336-6.144-34.816-19.968t-39.936-36.352-34.304-53.76-17.92-72.192q-14.336 1.024-26.112 1.024t-22.016 2.048zM681.984 616.448q-14.336-17.408-44.032-29.696t-82.944-16.384q-17.408-1.024-35.84-2.048l-36.864-2.048q6.144 17.408 18.432 33.28t33.792 28.16q38.912 21.504 75.776 17.92t71.68-29.184z" p-id="58941" fill="#2e5970"></path></svg>