<?xml version="1.0" standalone="no"?><!DOCTYPE svg PUBLIC "-//W3C//DTD SVG 1.1//EN" "http://www.w3.org/Graphics/SVG/1.1/DTD/svg11.dtd"><svg t="1635763226585" class="icon" viewBox="0 0 1024 1024" version="1.1" xmlns="http://www.w3.org/2000/svg" p-id="50986" xmlns:xlink="http://www.w3.org/1999/xlink" width="16" height="16"><defs><style type="text/css"></style></defs><path d="M501.8 211.8m-147.8 0a147.8 147.8 0 1 0 295.6 0 147.8 147.8 0 1 0-295.6 0Z" p-id="50987" fill="#2e5970"></path><path d="M216.4 741.8m-147.8 0a147.8 147.8 0 1 0 295.6 0 147.8 147.8 0 1 0-295.6 0Z" p-id="50988" fill="#2e5970"></path><path d="M807.6 741.8m-147.8 0a147.8 147.8 0 1 0 295.6 0 147.8 147.8 0 1 0-295.6 0Z" p-id="50989" fill="#2e5970"></path><path d="M690.4 211.8c0 22.8-4.3 44.6-11.8 64.9 90.2 58.3 150.2 159.5 150.2 274.7 0 1-0.1 2-0.2 3.1 29.3 3.3 56.4 13.3 80.1 28.5 0.8-10.4 1.6-20.9 1.6-31.5 0-157.9-90.2-294.9-221.6-362.9 1 7.6 1.7 15.3 1.7 23.2zM648.8 843.2c-44.3 22.4-94.1 35.3-147 35.3-46.8 0-91.3-10.1-131.6-27.9-17.2 24.2-39.8 44.2-66.2 58.1 58.7 32.6 126.1 51.3 197.8 51.3 75.9 0 146.8-21.2 207.8-57.4-24.5-15-45.3-35.3-60.8-59.4zM175.1 557.9c0-2.2-0.3-4.3-0.3-6.5 0-115.2 60-216.4 150.2-274.7-7.5-20.3-11.8-42.1-11.8-64.9 0-7.9 0.6-15.6 1.6-23.2-131.4 68-221.6 205-221.6 362.9 0 15.4 1 30.5 2.7 45.5 22.6-18.9 49.6-32.4 79.2-39.1z" p-id="50990" fill="#2e5970"></path></svg>