<?xml version="1.0" standalone="no"?><!DOCTYPE svg PUBLIC "-//W3C//DTD SVG 1.1//EN" "http://www.w3.org/Graphics/SVG/1.1/DTD/svg11.dtd"><svg t="1639980218950" class="icon" viewBox="0 0 1024 1024" version="1.1" xmlns="http://www.w3.org/2000/svg" p-id="27421" width="14" height="14" xmlns:xlink="http://www.w3.org/1999/xlink"><defs><style type="text/css"></style></defs><path d="M599.31579018 511.25082131C590.61656324 492.89551455 578.67518751 475.69529859 563.48994446 460.51005554c-71.09302475-71.09302475-186.35669755-71.09302475-257.44972227 0l-154.46983338 154.46983339c-71.09302475 71.09302475-71.09302475 186.35669755 0 257.44972226s186.35669755 71.09302475 257.44972226 0L519.03695935 762.41276294l0.00858192 0.00858193a37.10065778 37.10065778 0 0 1 0.6779504-0.69511425c14.21894816-14.21894816 37.27099631-14.21894815 51.48994446 1e-8 14.21894816 14.21894816 14.21894815 37.27099631 0 51.48994445-0.22998868 0.22998868-0.46255187 0.45568601-0.69511425 0.67795039l0.00858192 0.00858193L460.51005554 923.91955566c-99.53006263 99.53006263-260.89954857 99.53006263-360.4296112 0S0.55038172 663.02000708 100.08044434 563.48994446L254.55027771 409.02011106c99.53006263-99.53006263 260.89954857-99.53006263 360.42961122 1e-8 21.89953181 21.89953181 38.97960401 46.79234546 51.2427927 73.36287289l-0.04033432 0.01802147C672.24443065 495.80898697 669.76690588 512.13558992 658.74634172 523.15615408c-14.21894816 14.21894816-37.27099631 14.21894815-51.48994447 1e-8-2.61568918-2.61568918-4.74994738-5.53087766-6.40363304-8.63486287l0.02574498 0.11842687-0.21883146-0.48486391a36.13946311 36.13946311 0 0 1-1.34388755-2.90403287z" fill="#45B9B0" p-id="27422"></path><path d="M426.58418958 516.63495343C435.09204446 533.53223714 446.40095233 549.38084126 460.51005554 563.48994446c71.09302475 71.09302475 186.35669755 71.09302475 257.44972227 0L872.42961119 409.02011107c71.09302475-71.09302475 71.09302475-186.35669755 0-257.44972226S686.07291365 80.47736405 614.97988893 151.57038881l-110.04945831 110.04945828C490.69431942 275.63455152 467.79502507 275.56589855 453.64472988 261.41560336S439.42663935 224.36515619 453.44048619 210.12990261L563.48994446 100.08044434C663.02000708 0.55038172 824.38949302 0.55038172 923.91955566 100.08044434s99.53006263 260.89954857 0 360.4296112l-154.46983337 154.4698334c-99.53006263 99.53006263-260.89954857 99.53006263-360.42961122-1e-8-20.86200945-20.86200945-37.35252176-44.44268714-49.46810567-69.60067402l0.11756841-0.04891622C353.43499998 531.8682535 355.86789986 515.37859878 366.96999031 504.27650833c14.21894816-14.21894816 37.27099631-14.21894815 51.48994446 0a36.28752555 36.28752555 0 0 1 8.12425481 12.3584451z" fill="#45B9B0" p-id="27423"></path></svg>