<?xml version="1.0" standalone="no"?><!DOCTYPE svg PUBLIC "-//W3C//DTD SVG 1.1//EN" "http://www.w3.org/Graphics/SVG/1.1/DTD/svg11.dtd"><svg t="1635764065694" class="icon" viewBox="0 0 1024 1024" version="1.1" xmlns="http://www.w3.org/2000/svg" p-id="66605" xmlns:xlink="http://www.w3.org/1999/xlink" width="16" height="16"><defs><style type="text/css"></style></defs><path d="M288 768h64a32 32 0 0 0 32-32V544a32 32 0 0 0-32-32h-64a32 32 0 0 0-32 32v192a32 32 0 0 0 32 32z m256 0h64a32 32 0 0 0 32-32V224a32 32 0 0 0-32-32h-64a32 32 0 0 0-32 32v512a32 32 0 0 0 32 32z m256 0h64a32 32 0 0 0 32-32V416a32 32 0 0 0-32-32h-64a32 32 0 0 0-32 32v320a32 32 0 0 0 32 32z" p-id="66606" fill="#2e5970"></path><path d="M928 832H128V160a32 32 0 0 0-64 0v704a32 32 0 0 0 32 32h832a32 32 0 0 0 0-64z" p-id="66607" fill="#2e5970"></path></svg>