<?xml version="1.0" standalone="no"?><!DOCTYPE svg PUBLIC "-//W3C//DTD SVG 1.1//EN" "http://www.w3.org/Graphics/SVG/1.1/DTD/svg11.dtd"><svg t="1636351904490" class="icon" viewBox="0 0 1024 1024" version="1.1" xmlns="http://www.w3.org/2000/svg" p-id="64840" width="16" height="16" xmlns:xlink="http://www.w3.org/1999/xlink"><defs><style type="text/css"></style></defs><path d="M838.450027 69.569472 186.428993 69.569472c-29.842679 0-54.259788 24.417109-54.259788 54.259788l0 680.95911c0 29.842679 23.512507 53.355185 52.450583 54.259788l0 66.015529c0 24.417109 19.895119 43.407626 43.407626 43.407626l567.918567 0c24.417109 0 43.407626-19.895119 43.407626-43.407626L839.353606 859.048157c28.938076-0.904603 52.451606-24.417109 52.451606-54.259788l0-680.95911C892.709815 93.986581 868.292706 69.569472 838.450027 69.569472zM793.234219 921.447323 231.645824 921.447323l0-63.302745 561.588395 0L793.234219 921.447323zM845.684802 804.788369c0 4.52199-3.617387 8.139378-8.139378 8.139378l-41.599444 0-567.013965 0-42.503023 0c-4.52199 0-8.139378-3.617387-8.139378-8.139378l0-680.95911c0.904603-4.52199 3.617387-8.139378 8.139378-8.139378l651.116431 0c4.52199 0 8.139378 3.617387 8.139378 8.139378L845.684802 804.788369z" p-id="64841" fill="#2e5970"></path><path d="M285.001009 890.700041m-22.607904 0a22.093 22.093 0 1 0 45.215808 0 22.093 22.093 0 1 0-45.215808 0Z" p-id="64842" fill="#2e5970"></path><path d="M384.568159 437.552531l-51.574832 0c-14.3067 0-25.787516 11.480616-25.787516 25.787316l0 206.299529c0 14.3067 11.480616 25.787516 25.787516 25.787516l51.574832 0c14.3067 0 25.787516-11.480616 25.787516-25.787516L410.355675 463.339848C410.355475 449.033148 398.874859 437.552531 384.568159 437.552531zM694.017352 385.977499l-51.574832 0c-14.3067 0-25.787516 11.480616-25.787516 25.787516l0 257.874361c0 14.3067 11.480816 25.787516 25.787516 25.787516l51.574832 0c14.3067 0 25.787516-11.480616 25.787516-25.787516L719.804868 411.765015C719.804668 397.458315 708.324052 385.977499 694.017352 385.977499zM565.080172 282.827835l-103.149665 0c-14.3067 0-25.787516 11.480616-25.787516 25.787516l0 361.024026c0 14.3067 11.480816 25.787516 25.787516 25.787516l103.149665 0c14.3067 0 25.787516-11.480616 25.787516-25.787516L590.867688 308.615351C590.867488 294.308651 579.386872 282.827835 565.080172 282.827835zM539.292656 643.85186 487.717823 643.85186l0-25.787516 51.574832 0L539.292656 643.85186zM539.292656 592.277028 487.717823 592.277028l0-25.787516 51.574832 0L539.292656 592.277028zM539.292656 540.702196 487.717823 540.702196l0-25.787516 51.574832 0L539.292656 540.702196zM539.292656 489.127364 487.717823 489.127364l0-25.787516 51.574832 0L539.292656 489.127364z" p-id="64843" fill="#2e5970"></path></svg>