<?xml version="1.0" standalone="no"?><!DOCTYPE svg PUBLIC "-//W3C//DTD SVG 1.1//EN" "http://www.w3.org/Graphics/SVG/1.1/DTD/svg11.dtd"><svg t="1639980252263" class="icon" viewBox="0 0 1024 1024" version="1.1" xmlns="http://www.w3.org/2000/svg" p-id="17090" width="14" height="14" xmlns:xlink="http://www.w3.org/1999/xlink"><defs><style type="text/css"></style></defs><path d="M933.66933477 90.33066523a284.31118021 284.31118021 0 0 0-402.4795926 0L403.76312086 217.92561765l67.07993209 67.07993208 127.42662132-127.42662132c70.69905014-70.78321567 190.2141111-78.27394836 268.3197284 0 78.27394836 78.27394836 70.69905014 197.45234717 0 268.23556285l-127.51078686 127.42662131 67.24826316 67.16409765 127.42662134-127.42662134a284.81617342 284.81617342 0 0 0-0.16833108-402.47959257z m-507.77067798 776.25873744c-70.78321567 70.69905014-190.2141111 78.27394836-268.31972838 0a188.86746252 188.86746252 0 0 1 0-268.3197284l127.42662132-127.42662132-67.16409763-67.16409762L90.33066523 531.02141112a284.31118021 284.31118021 0 0 0 0 402.31126149 284.47951127 284.47951127 0 0 0 402.31126152 0l127.51078687-127.34245577-67.07993211-67.0799321-127.25829025 127.59495239z m-244.92170941-752.52405631a10.52069198 10.52069198 0 0 0-14.81313431 0l-52.18263225 52.09846671a10.52069198 10.52069198 0 0 0 0 14.81313431l729.12603733 729.12603734a10.52069198 10.52069198 0 0 0 14.89729986 0l52.09846671-52.18263224a10.52069198 10.52069198 0 0 0 0-14.81313433L180.97694738 114.06534636z" fill="#FF5D40" p-id="17091"></path></svg>