<?xml version="1.0" standalone="no"?><!DOCTYPE svg PUBLIC "-//W3C//DTD SVG 1.1//EN" "http://www.w3.org/Graphics/SVG/1.1/DTD/svg11.dtd"><svg t="1639651302464" class="icon" viewBox="0 0 1024 1024" version="1.1" xmlns="http://www.w3.org/2000/svg" p-id="2027" width="16" height="16" xmlns:xlink="http://www.w3.org/1999/xlink"><defs><style type="text/css"></style></defs><path d="M224 608c-52.928 0-96-43.072-96-96s43.072-96 96-96c52.928 0 96 43.072 96 96S276.928 608 224 608z" p-id="2028" fill="#2E5970"></path><path d="M512 608c-52.928 0-96-43.072-96-96s43.072-96 96-96c52.928 0 96 43.072 96 96S564.928 608 512 608z" p-id="2029" fill="#2E5970"></path><path d="M800 608c-52.928 0-96-43.072-96-96s43.072-96 96-96c52.928 0 96 43.072 96 96S852.928 608 800 608z" p-id="2030" fill="#2E5970"></path></svg>