<?xml version="1.0" standalone="no"?><!DOCTYPE svg PUBLIC "-//W3C//DTD SVG 1.1//EN" "http://www.w3.org/Graphics/SVG/1.1/DTD/svg11.dtd"><svg t="1635912806120" class="icon" viewBox="0 0 1024 1024" version="1.1" xmlns="http://www.w3.org/2000/svg" p-id="13087" width="16" height="16" xmlns:xlink="http://www.w3.org/1999/xlink"><defs><style type="text/css"></style></defs><path d="M-126.62581729-150.80359506h1325.60719013v1325.60719012H-126.62581729V-150.80359506z m1038.78998065 864.87031731a1094.06780048 1094.06780048 0 0 0-124.65126233-73.43863834c-30.48896537-81.96671082-52.31729754-213.64369257-138.39339066-341.60897288-92.70412906-137.77477354-237.46043423-170.38471041-357.73719413-147.40751954A747.2005866 747.2005866 0 0 0 250.64198903 114.31784297c-30.35640466-25.89352668-133.75376549-43.47991584-155.93559205-15.99566053-22.0934536 27.30750811-25.31909733 79.00618853 50.54982042 190.13625883 18.91199635 55.05688486 18.91199635 104.81134227 83.91093515 191.28511754L186.12910534 604.79250331c-28.41218034 96.81351135 20.32597648 237.90230415 68.40133102 281.55896718 25.62840525 23.33068654 47.27999022 19.88410785 57.9290342 15.68635132 21.43065001-8.3513253 49.84283035-71.31766683 49.84283035-133.75376548 5.7442974 13.96306196 14.93517477 58.23834212 21.07715433 74.45493761 22.53532223 59.29882787 45.42414014 101.8066322 93.32274617 127.74434666 20.81203289 14.05143621 52.84754042 31.94713328 67.16409807 28.27961961 14.36074413-3.66751365-71.14091964-85.41328951-110.15795749-182.27098864-31.46107687-78.16663774-32.03550753-127.47922522-47.50092389-156.99607778a32.16806825 32.16806825 0 0 0-35.17277831-16.30496845 31.81457257 31.81457257 0 0 0-24.96560165 29.60522682c-3.84426085 90.14128893-28.58892883 144.71211869-34.6867219 161.14964785-26.42376956-30.1354697-64.95475232-140.55854863-44.14271944-211.39016035 20.67947216-70.52230252 32.52156263-124.51870162 41.80081426-131.23511182 4.5954387-11.6211568 5.83267163-29.78197531 0-38.44260851-59.87325852-89.08080318-67.78271389-146.87727667-88.24125239-203.39232945C180.2964337 193.05891006 145.69808603 159.83035606 138.49562074 143.34864043c31.10758249-11.66534327 53.99639911 4.86056012 70.61067676 19.04455706 17.05614628 14.44911838 33.36111472 29.73778754 48.82653107 45.86600878 7.95364315 8.3513253 19.88410785 11.75371753 31.10758249 8.83738041 99.77403494-25.67259301 225.26484807-4.50706445 307.09899818 117.09530265 87.44588807 130.04206535 108.39048169 261.14461645 135.56542907 339.53218786 2.78377509 7.95364315 8.66063322 14.58167909 16.34915492 18.24919276a1002.07066149 1002.07066149 0 0 1 128.23040305 74.49912409c7.37921379 4.99312084 14.00724974 9.58855824 19.97248081 13.87468772h-98.40423999a31.90294681 31.90294681 0 0 0-28.89823673 18.42593994 31.54945113 31.54945113 0 0 0 4.63962516 33.80298335c31.5936376 37.20537556 64.07101375 73.65957329 97.43212847 109.36259318 67.73852741 56.86854846 100.61358573 42.15430864 106.13694946 37.42631053 5.52336372-4.77218589-36.23326276-60.53606211-59.74069781-80.86203859-16.92358556-17.98407131-33.58204838-36.23326276-49.93120459-54.79176473h109.6719024a31.94713328 31.94713328 0 0 0 27.52844177-15.73053778 31.54945113 31.54945113 0 0 0 0.1767485-31.54945114c-7.77689595-13.69794053-25.89352668-37.1611878-92.70413037-82.36439427z m-548.18275958-364.05592088c13.65375406 22.22601433 31.99131975 38.79610419 45.60088733 61.06630499l1.94422432-3.31401798c15.02354772-17.27707995 19.44223922-77.28289918-14.18399693-110.90913533-18.55850066-24.30279805-64.91056585-16.2165942-79.09456278-9.72111897 20.10504282 29.42847963 35.3495255 50.37307323 45.73344806 62.87796729z" fill="#2e5970" p-id="13088"></path></svg>