<?xml version="1.0" standalone="no"?><!DOCTYPE svg PUBLIC "-//W3C//DTD SVG 1.1//EN" "http://www.w3.org/Graphics/SVG/1.1/DTD/svg11.dtd"><svg t="1635913279044" class="icon" viewBox="0 0 1024 1024" version="1.1" xmlns="http://www.w3.org/2000/svg" p-id="14973" xmlns:xlink="http://www.w3.org/1999/xlink" width="16" height="16"><defs><style type="text/css"></style></defs><path d="M826.5728 512c0 87.38133333-69.90506667 157.2864-157.2864 157.2864H354.7136c-87.38133333 0-157.2864-69.90506667-157.2864-157.2864s69.90506667-157.2864 157.2864-157.2864h314.5728c87.38133333 0 157.2864 69.90506667 157.2864 157.2864z" fill="#cb3320" p-id="14974"></path><path d="M-70.54222222-70.54222222v1165.08444444h1165.08444444V-70.54222222H-70.54222222z m926.24213333 768.95573333c-49.51608889 49.51608889-116.50844445 75.73048889-186.41351111 75.73048889H354.7136c-145.63555555 0-262.144-116.50844445-262.144-262.144s116.50844445-262.144 262.144-262.144h314.5728c145.63555555 0 262.144 116.50844445 262.144 262.144 0 69.90506667-26.2144 136.89742222-75.73048889 186.41351111z" fill="#cb3320" p-id="14975"></path></svg>