<?xml version="1.0" standalone="no"?><!DOCTYPE svg PUBLIC "-//W3C//DTD SVG 1.1//EN" "http://www.w3.org/Graphics/SVG/1.1/DTD/svg11.dtd"><svg t="1635763060433" class="icon" viewBox="0 0 1024 1024" version="1.1" xmlns="http://www.w3.org/2000/svg" p-id="48688" width="16" height="16" xmlns:xlink="http://www.w3.org/1999/xlink"><defs><style type="text/css"></style></defs><path d="M961.5 167.7L545.6 12.5c-10.8-4-22.2-6-33.5-6-11.4 0-22.8 2-33.7 6.1l-416.1 156C24.8 182.7 0 218.5 0 258.5v433.1c0 35.4 19.4 67.9 50.6 84.6l417.6 224.3c14.2 7.6 29.8 11.4 45.4 11.4 14.7 0 29.4-3.4 42.9-10.1l414.4-207.2c32.5-16.3 53.1-49.5 53.1-85.9v-451c0-40.1-24.9-76-62.5-90zM500.8 72.5c3.6-1.3 7.4-2 11.2-2 3.8 0 7.6 0.7 11.2 2l365.6 136.4c10.5 3.9 10.4 18.8-0.1 22.5L772 273.2c-3.7 1.3-7.8 1.2-11.5-0.3L392.4 120.6c-3.4-1.4-3.3-6.2 0.1-7.4l108.3-40.7zM480 894c0 18.2-19.4 29.7-35.4 21.1L80.9 719.8C70.5 714.2 64 703.4 64 691.6V308c0-16.6 16.4-28.2 32.1-22.6l352.1 125.7c19.1 6.8 31.9 24.9 31.9 45.2V894z m-0.3-539.5L136.3 231.8c-10.5-3.8-10.7-18.6-0.2-22.5l153.2-57.5c3.8-1.4 8-1.4 11.7 0.2l365.7 151.3c3.4 1.4 3.3 6.2-0.2 7.5l-122.3 43.7c-20.8 7.5-43.6 7.5-64.5 0zM960 708.7c0 12.2-6.8 23.2-17.7 28.6L578.7 919.1c-15.9 8-34.7-3.6-34.7-21.5V456.4c0-20.3 12.8-38.4 31.9-45.2l138.8-49.6c2.6-0.9 5.3 1 5.3 3.8v197.7c0 5.9 6.3 9.8 11.6 7.2l43.6-21.8c5.4-2.7 8.8-8.3 8.8-14.3v-186c0-6.8 4.3-12.8 10.6-15.1l133.3-47.6c15.6-5.6 32.1 6 32.1 22.6v400.6z" p-id="48689" fill="#2e5970"></path></svg>