<?xml version="1.0" standalone="no"?><!DOCTYPE svg PUBLIC "-//W3C//DTD SVG 1.1//EN" "http://www.w3.org/Graphics/SVG/1.1/DTD/svg11.dtd"><svg t="1635763454020" class="icon" viewBox="0 0 1024 1024" version="1.1" xmlns="http://www.w3.org/2000/svg" p-id="58037" xmlns:xlink="http://www.w3.org/1999/xlink" width="16" height="16"><defs><style type="text/css"></style></defs><path d="M832 106.666667H192C144.853333 106.666667 106.666667 144.853333 106.666667 192v128h810.666666V192c0-47.146667-38.186667-85.333333-85.333333-85.333333zM106.666667 384v448c0 47.146667 38.186667 85.333333 85.333333 85.333333h640c47.146667 0 85.333333-38.186667 85.333333-85.333333V384H106.666667z m384 384c0 23.466667-19.2 42.666667-42.666667 42.666667h-64c-23.466667 0-42.666667-19.2-42.666667-42.666667v-64c0-23.466667 19.2-42.666667 42.666667-42.666667h64c23.466667 0 42.666667 19.2 42.666667 42.666667v64z m0-192c0 23.466667-19.2 42.666667-42.666667 42.666667h-64c-23.466667 0-42.666667-19.2-42.666667-42.666667v-64c0-23.466667 19.2-42.666667 42.666667-42.666667h64c23.466667 0 42.666667 19.2 42.666667 42.666667v64z m192 192c0 23.466667-19.2 42.666667-42.666667 42.666667h-64c-23.466667 0-42.666667-19.2-42.666667-42.666667v-64c0-23.466667 19.2-42.666667 42.666667-42.666667h64c23.466667 0 42.666667 19.2 42.666667 42.666667v64z m0.853333-193.92l-45.226667 45.226667c-16.64 16.64-43.733333 16.64-60.373333 0l-45.226667-45.226667c-16.64-16.64-16.64-43.733333 0-60.373333l45.226667-45.226667c16.64-16.64 43.733333-16.64 60.373333 0l45.226667 45.226667c16.64 16.853333 16.64 43.733333 0 60.373333z" p-id="58038" fill="#2e5970"></path></svg>