<?xml version="1.0" standalone="no"?><!DOCTYPE svg PUBLIC "-//W3C//DTD SVG 1.1//EN" "http://www.w3.org/Graphics/SVG/1.1/DTD/svg11.dtd"><svg t="1635763636998" class="icon" viewBox="0 0 1027 1024" version="1.1" xmlns="http://www.w3.org/2000/svg" p-id="61942" xmlns:xlink="http://www.w3.org/1999/xlink" width="16.046875" height="16"><defs><style type="text/css"></style></defs><path d="M38.771627 310.656a36.608 36.608 0 1 1 0-73.130667h220.117333a255.957333 255.957333 0 0 1 510.634667 0h220.074666a36.608 36.608 0 1 1 0 73.130667h-76.288L850.37696 919.296c-6.272 59.605333-53.205333 104.661333-109.056 104.661333H287.006293c-55.850667 0-102.784-45.098667-108.928-104.661333L114.931627 310.656H38.771627z m212.053333 599.978667a37.546667 37.546667 0 0 0 36.224 34.901333h454.229333a37.546667 37.546667 0 0 0 36.352-34.901333l62.122667-599.936H188.531627l62.293333 599.936zM696.13696 237.482667a182.826667 182.826667 0 0 0-363.904 0h363.904z m-64.938667 566.997333l-43.904-73.130667h53.504l-63.36-109.781333 41.472-74.581333 116.992 202.624a36.608 36.608 0 0 1-31.744 54.869333h-72.96z m-73.088 0H324.126293a36.48 36.48 0 0 1-31.658666-54.869333l36.48-63.189334 85.290666-1.450666-26.752 46.378666h126.72l43.904 73.130667z m24.277334-320.810667l-41.472 74.624L514.163627 511.914667l-63.36 109.696-85.248 1.493333 116.906666-202.666667a36.522667 36.522667 0 0 1 63.317334 0l36.608 63.232z" p-id="61943" fill="#2e5970"></path></svg>