<?xml version="1.0" standalone="no"?><!DOCTYPE svg PUBLIC "-//W3C//DTD SVG 1.1//EN" "http://www.w3.org/Graphics/SVG/1.1/DTD/svg11.dtd"><svg t="1638944449046" class="icon" viewBox="0 0 1024 1024" version="1.1" xmlns="http://www.w3.org/2000/svg" p-id="3958" xmlns:xlink="http://www.w3.org/1999/xlink" width="16" height="16"><defs><style type="text/css"></style></defs><path d="M862.4 186.4h-70.7v-58c0-34.8-28.3-63.2-63.2-63.2H163.9c-34.8 0-63.2 28.4-63.2 63.2v646.4c0 34.8 28.3 63.2 63.2 63.2h70.7v58c0 34.8 28.3 63.2 63.2 63.2h564.6c34.8 0 63.2-28.3 63.2-63.2V249.6c-0.1-34.9-28.4-63.2-63.2-63.2zM163.9 782.2c-4.1 0-7.4-3.3-7.4-7.4V128.4c0-4.1 3.3-7.4 7.4-7.4h564.6c4.1 0 7.4 3.3 7.4 7.4v58H297.7c-34.8 0-63.2 28.4-63.2 63.2v532.6h-70.6zM869.8 896c0 4.1-3.3 7.4-7.4 7.4H297.7c-4.1 0-7.4-3.3-7.4-7.4V249.6c0-4.1 3.3-7.4 7.4-7.4h564.6c4.1 0 7.4 3.3 7.4 7.4l0.1 646.4z m0 0" p-id="3959" fill="#2E5970"></path><path d="M588.2 676.2H429.1c-15.4 0-27.9 12.5-27.9 27.9 0 15.4 12.5 27.9 27.9 27.9h159.2c15.4 0 27.9-12.5 27.9-27.9-0.1-15.4-12.6-27.9-28-27.9z m145.6-150.8H429.1c-15.4 0-27.9 12.5-27.9 27.9 0 15.4 12.5 27.9 27.9 27.9h304.7c15.4 0 27.9-12.5 27.9-27.9 0-15.4-12.5-27.9-27.9-27.9z m0-145.4H429.1c-15.4 0-27.9 12.5-27.9 27.9 0 15.4 12.5 27.9 27.9 27.9h304.7c15.4 0 27.9-12.5 27.9-27.9 0-15.4-12.5-27.9-27.9-27.9z m0 0" p-id="3960" fill="#2E5970"></path></svg>