<?xml version="1.0" standalone="no"?><!DOCTYPE svg PUBLIC "-//W3C//DTD SVG 1.1//EN" "http://www.w3.org/Graphics/SVG/1.1/DTD/svg11.dtd"><svg t="1638944579856" class="icon" viewBox="0 0 1024 1024" version="1.1" xmlns="http://www.w3.org/2000/svg" p-id="4202" xmlns:xlink="http://www.w3.org/1999/xlink" width="16" height="16"><defs><style type="text/css"></style></defs><path d="M892.7692332 261.66153886l-5.88461484 585.65769171c0 63.20769258-49.32692315 114.64615372-109.97307685 114.64615371H241.13461836c-60.61153887 0-109.93846113-51.43846113-109.93846201-114.68076855V176.64615372C131.19615635 113.43846113 180.5230795 62 241.13461836 62h466.78846114l0.7961537 0.86538428 184.05 197.58461572v1.21153887zM672.58077207 127.76923057v133.26923056c0 6.57692315 2.42307685 12.73846113 6.85384629 17.30769258a22.84615372 22.84615372 0 0 0 16.61538427 7.2h127.76538428L672.58077207 127.76923057z m155.14615371 219.46153886h-157.95c-31.08461572 0-56.38846113-26.37692315-56.38846201-58.77692315v-164.76923055H241.13461836c-28.00384629 0-50.81538427 23.74615371-50.81538516 52.96153798v670.63846202c0 29.21538428 22.81153887 52.99615371 50.81538516 52.9961537h535.77692315c28.00384629 0 50.81538427-23.78076943 50.81538427-52.9961537V347.23076943z m-122.05384629 372.15l-0.27692314 0.03461485H287.72692578a31.15384629 31.15384629 0 0 1-24.68076943-30.84230743 31.15384629 31.15384629 0 0 1 24.16153886-30.77307685l417.91153799-0.06923057a31.22307685 31.22307685 0 0 1 24.71538516 30.84230742 31.15384629 31.15384629 0 0 1-24.16153887 30.80769258z m0-144.76153886l-0.27692314 0.06923056H287.72692578a31.22307685 31.22307685 0 0 1-24.68076943-30.84230742c0-14.91923057 10.14230742-27.83076943 24.12692315-30.80769258l417.9461537-0.03461485c14.57307685 3.01153886 24.71538427 15.92307685 24.71538516 30.84230744a31.15384629 31.15384629 0 0 1-24.16153887 30.77307685z m-175.98461572-144.69230742H287.72692578a28.28076943 28.28076943 0 0 1-24.71538427-29.83846202c-1.35-15.12692315 9.58846113-29.07692315 24.43846112-30.7038454l241.92692315-0.03461573a28.48846114 28.48846114 0 0 1 24.75 31.11923057 28.17692315 28.17692315 0 0 1-24.43846201 29.45769258z" p-id="4203" fill="#2E5970"></path></svg>