<?xml version="1.0" standalone="no"?><!DOCTYPE svg PUBLIC "-//W3C//DTD SVG 1.1//EN" "http://www.w3.org/Graphics/SVG/1.1/DTD/svg11.dtd"><svg t="1635763362542" class="icon" viewBox="0 0 1024 1024" version="1.1" xmlns="http://www.w3.org/2000/svg" p-id="54413" xmlns:xlink="http://www.w3.org/1999/xlink" width="16" height="16"><defs><style type="text/css"></style></defs><path d="M128 42.666667h768a85.333333 85.333333 0 0 1 85.333333 85.333333v768a85.333333 85.333333 0 0 1-85.333333 85.333333H128a85.333333 85.333333 0 0 1-85.333333-85.333333V128a85.333333 85.333333 0 0 1 85.333333-85.333333z m0 85.333333v768h768V128H128z" fill="#2e5970" p-id="54414"></path><path d="M81.792 748.288m42.666667 0l775.125333 0q42.666667 0 42.666667 42.666667l0 0q0 42.666667-42.666667 42.666666l-775.125333 0q-42.666667 0-42.666667-42.666666l0 0q0-42.666667 42.666667-42.666667Z" fill="#2e5970" p-id="54415"></path><path d="M520.106667 714.538667c153.216 0 277.333333-124.970667 277.333333-278.997334S673.322667 156.586667 520.106667 156.586667 242.773333 281.557333 242.773333 435.541333c0 154.026667 124.117333 278.997333 277.333334 278.997334z m0-85.333334c-105.984 0-192-86.613333-192-193.664C328.106667 328.533333 414.122667 241.92 520.106667 241.92S712.106667 328.533333 712.106667 435.541333c0 107.050667-86.016 193.664-192 193.664z" fill="#2e5970" p-id="54416"></path><path d="M441.898667 317.397333m39.125333 0l-0.042667 0q39.125333 0 39.125334 39.125334l0 110.805333q0 39.125333-39.125334 39.125333l0.042667 0q-39.125333 0-39.125333-39.125333l0-110.805333q0-39.125333 39.125333-39.125334Z" fill="#2e5970" p-id="54417"></path><path d="M638.677333 471.552c0 21.76-17.664 39.381333-39.381333 39.381333H482.474667a39.381333 39.381333 0 1 1 0-78.762666h116.821333c21.76 0 39.381333 17.621333 39.381333 39.381333z" fill="#2e5970" p-id="54418"></path></svg>