<?xml version="1.0" standalone="no"?><!DOCTYPE svg PUBLIC "-//W3C//DTD SVG 1.1//EN" "http://www.w3.org/Graphics/SVG/1.1/DTD/svg11.dtd"><svg t="1635759695497" class="icon" viewBox="0 0 1024 1024" version="1.1" xmlns="http://www.w3.org/2000/svg" p-id="7392" xmlns:xlink="http://www.w3.org/1999/xlink" width="16" height="16"><defs><style type="text/css"></style></defs><path d="M575.901891 898.426003c6.281053-6.282077 9.699919-14.842033 9.699919-24.541953l0-80.46359c0-9.699919-3.419889-18.260899-9.699919-24.539906-6.260587-6.281053-15.380292-9.720386-24.499997-9.720386l0 0-80.406285 0 0 0c-9.680477 0-18.241456 3.439332-24.502044 9.720386l0 0c-6.260587 6.28003-10.260691 14.84101-10.260691 24.539906l0 80.46359c0 9.699919 4.000104 18.260899 10.260691 24.541953l0 0c6.260587 6.28003 14.820544 10.279111 24.502044 10.279111l0 0 80.406285 0 0 0C560.521598 908.705114 569.641303 904.706033 575.901891 898.426003L575.901891 898.426003zM470.995609 707.23659l80.406285 0c23.361057 0 45.042869 9.700943 61.002352 25.101701 15.382339 15.980973 25.084305 37.10099 25.084305 61.081147l0 0 0 80.46359 0 0c0 23.980157-9.700943 45.661969-25.084305 61.08217l0 0c-15.960507 15.401782-37.641295 25.100678-61.002352 25.100678l0 0-80.406285 0 0 0c-23.921829 0-45.604664-9.699919-60.984956-25.100678l0 0c-15.962553-15.420201-25.082258-37.103036-25.082258-61.08217l0-80.46359c0-23.981181 9.120728-45.100174 25.082258-61.081147C425.390945 716.938556 447.072757 707.23659 470.995609 707.23659L470.995609 707.23659zM897.466654 898.426003c6.260587-6.282077 10.261715-14.842033 10.261715-24.541953l0 0 0-80.46359 0 0c0-9.699919-4.001127-18.260899-10.261715-24.539906-6.281053-6.281053-14.821567-9.720386-24.521486-9.720386l0 0-80.386842 0 0 0c-9.699919 0-18.241456 3.439332-24.520463 9.720386-6.261611 6.28003-9.682523 14.84101-9.682523 24.539906l0 80.46359c0 9.699919 3.420913 18.260899 9.682523 24.541953l0 0c6.279007 6.28003 14.81952 10.279111 24.520463 10.279111l0 0 80.386842 0 0 0C882.645087 908.705114 891.186623 904.706033 897.466654 898.426003L897.466654 898.426003zM792.559349 707.23659l80.386842 0c23.941272 0 45.602617 9.700943 61.003376 25.101701 15.400758 15.980973 25.083282 37.10099 25.083282 61.081147l0 80.46359c0 23.980157-9.682523 45.661969-25.083282 61.08217-15.400758 15.401782-37.062104 25.100678-61.003376 25.100678l0 0-80.386842 0 0 0c-23.941272 0-45.043892-9.699919-61.006446-25.100678-15.399735-15.420201-25.080212-37.103036-25.080212-61.08217l0 0 0-80.46359 0 0c0-23.981181 9.680477-45.100174 25.080212-61.081147C747.515457 716.938556 768.617054 707.23659 792.559349 707.23659L792.559349 707.23659zM253.797845 898.426003c6.261611-6.282077 10.241248-14.842033 10.241248-24.541953l0 0 0-80.46359 0 0c0-9.699919-3.980661-18.260899-10.241248-24.539906-6.281053-6.281053-14.84101-9.720386-24.52251-9.720386l0 0-80.405261 0 0 0c-9.680477 0-18.241456 3.439332-24.502044 9.720386l0 0c-6.260587 6.28003-9.699919 14.84101-9.699919 24.539906l0 0 0 80.46359 0 0c0 9.699919 3.439332 18.260899 9.699919 24.541953l0 0c6.261611 6.28003 15.382339 10.279111 24.502044 10.279111l0 0L229.275335 908.705114l0 0C238.956835 908.705114 247.516792 904.706033 253.797845 898.426003L253.797845 898.426003zM148.870074 707.23659 229.275335 707.23659c23.942295 0 45.603641 9.700943 61.005422 25.101701 15.960507 15.980973 25.082258 37.10099 25.082258 61.081147l0 80.46359c0 23.980157-9.121751 45.661969-25.082258 61.08217-15.400758 15.401782-37.062104 25.100678-61.005422 25.100678l0 0-80.405261 0 0 0c-23.922852 0-45.023426-9.699919-60.984956-25.100678l0 0c-15.400758-15.420201-25.082258-37.103036-25.082258-61.08217l0-80.46359c0-23.981181 9.6815-45.100174 25.082258-61.081147C103.846648 716.938556 124.947222 707.23659 148.870074 707.23659L148.870074 707.23659zM207.61399 670.695349c-4.559852 4.580319-11.400654 7.421017-18.241456 7.421017l0 0 0 0c-7.419993 0-13.681604-2.840698-18.241456-7.421017-4.560876-4.559852-7.419993-10.840906-7.419993-18.259876l0 0 0 0L163.711084 491.488851l-0.579191 0c0-6.850012 3.439332-13.700023 8.000208-18.260899l0 0c4.559852-4.570085 10.821463-7.41897 18.241456-7.41897l295.881824 0 0-95.313809c0-6.851035 2.861164-13.131065 7.42204-18.261922l0 0c4.560876-4.569062 11.399631-7.419993 18.240433-7.419993 7.401574 0 13.681604 2.850931 18.241456 7.419993 4.561899 5.130857 7.981788 11.410887 7.981788 18.261922l0 95.313809 295.900244 0 0 0c6.840802 0 13.102413 2.848884 18.24248 7.41897 4.560876 4.561899 7.401574 11.410887 7.401574 18.260899l0 160.946622c0 7.41897-2.840698 13.700023-7.401574 18.259876-5.140067 4.580319-11.402701 8.001231-18.24248 8.001231-7.419993 0-13.680581-3.421936-18.240433-8.001231-5.140067-4.559852-7.979742-10.840906-7.979742-18.259876L806.821167 517.170766 536.57828 517.170766l0 135.26573 0 0c0 7.41897-2.858094 13.700023-7.419993 18.259876-4.559852 4.580319-10.839883 8.001231-18.241456 8.001231-6.841825 0-13.679557-3.421936-18.240433-8.001231l0 0c-4.560876-4.559852-7.42204-10.840906-7.42204-18.259876L485.254358 517.170766 215.015563 517.170766l0 135.26573C215.015563 659.854443 212.174865 666.135496 207.61399 670.695349L207.61399 670.695349zM446.493565 124.505665c-6.260587 6.279007-10.260691 15.409968-10.260691 24.539906l0 80.472799c0 9.700943 4.000104 18.260899 10.260691 24.540929 6.260587 6.28003 14.820544 10.280134 24.502044 10.280134l0 0 80.406285 0 0 0c9.119705 0 18.23941-4.000104 24.499997-10.280134l0 0c6.281053-6.28003 9.699919-14.839986 9.699919-24.540929l0-80.472799c0-9.129938-3.419889-18.261922-9.699919-24.539906-6.260587-6.281053-15.380292-9.700943-24.499997-9.700943l0 0-80.406285 0 0 0C461.314109 114.804722 452.753129 118.794593 446.493565 124.505665L446.493565 124.505665zM551.401894 315.702242l-80.406285 0 0 0c-23.921829 0-45.604664-9.128915-60.984956-25.110911l0 0c-15.962553-15.409968-25.082258-37.10099-25.082258-61.071937l0 0 0-80.472799c0-23.400966 9.120728-45.091988 25.082258-61.072961 15.380292-15.409968 37.063127-25.110911 60.984956-25.110911l0 0 80.406285 0 0 0c23.361057 0 45.042869 9.700943 61.002352 25.110911 15.382339 15.97995 25.084305 37.670971 25.084305 61.072961l0 0 0 80.472799 0 0c0 23.970948-9.700943 45.662992-25.084305 61.071937l0 0C596.443739 306.573327 574.762951 315.702242 551.401894 315.702242L551.401894 315.702242z" p-id="7393" fill="#2e5970"></path></svg>