<?xml version="1.0" standalone="no"?><!DOCTYPE svg PUBLIC "-//W3C//DTD SVG 1.1//EN" "http://www.w3.org/Graphics/SVG/1.1/DTD/svg11.dtd"><svg t="1635912410348" class="icon" viewBox="0 0 1024 1024" version="1.1" xmlns="http://www.w3.org/2000/svg" p-id="8531" width="16" height="16" xmlns:xlink="http://www.w3.org/1999/xlink"><defs><style type="text/css"></style></defs><path d="M-45.37837038-109.37837037h1242.75674074v1242.75674074H-45.37837038V-109.37837037z m539.97780385 240.72198068c9.61065172 0-20.29835969-74.3168531-20.2983597-74.31685309S368.74960045 103.75441067 362.37011626 109.05683983c-6.42091023 5.30242916 122.66009031 22.28677049 132.27074203 22.28677048z m-65.2861537 55.17839929l67.19171364-41.38379947c-16.23868848 2.11268645-148.05375264-27.58919965-148.05375265-27.58919964 2.15411129 6.37948419 64.00197215 68.97299911 64.00197215 68.97299911h16.86006686z m97.3078528 15.9487111l-19.22130467-45.6505972-55.50980149 33.96868384 74.73110616 11.68191336z m-144.03550627-22.82529799l-46.93477996-54.6812966s-37.32412704 25.47651318-32.0216991 31.85599739c5.38527881 6.37948419 78.95647786 22.78387317 78.95647906 22.78387317z m-54.39132041 6.87658689c19.17987862 13.79459982 64.00197215 72.20416663 64.00197215 72.20416663l-17.06719217-56.25545553-46.93477998-15.9487111z m84.25890702 88.11145292l76.80236658-57.33251057-102.40315545-14.83023125s25.60078885 59.40377221 25.60078887 72.16274182z m88.52570477-52.03008262l-71.66563791 61.59930952c20.00838352 4.22537292 85.54308859 28.62482986 85.54308857 28.62482987 4.26679774-70.00862932-13.87745068-90.22413938-13.87745066-90.22413939z m25.64221489 87.07582271s104.5158419-58.40956682 111.97238233-61.59930952l-123.07434336-25.47651319s27.09209695 38.23548279 11.10196103 87.07582271z m93.86955874 50.95302637c40.51386975-69.01442393 40.51386975-108.28553694 40.51386975-108.28553694l-112.26235851 72.1627406c18.93132729 5.30242916 71.74848876 36.0813703 71.74848876 36.08137152z m25.60078886 0c53.31426418-27.63062446 168.51781405-59.48662306 168.51781404-59.48662306-24.52373262-16.98434253-139.72728249-48.79891509-139.72728248-48.79891388 1.07705625 15.90728628-28.79053156 108.24411212-28.79053156 108.24411212z m0 14.83023004c34.83861356 20.17408402 71.45851259 78.54222602 71.45851259 78.542226 67.19171485-65.78325641 107.74700942-141.17716575 107.74700942-141.17716573-15.99013714 1.07705625-179.20552202 62.63493973-179.20552201 62.63493973z m197.34977043-62.63493973c-16.03156195 42.46085571-97.10072627 135.87473659-97.10072627 135.87473779 41.63235082-16.98434253 220.79644801-31.85599739 220.79644679-31.85599859-15.9487111-32.89162881-123.69572052-103.97731438-123.69572052-103.97731318z m-346.93625719 24.44088296c-22.61817268-14.87165607-74.02687693-27.58919965-74.02687572-27.58919964 5.75810582 3.14831667 6.83516208 91.25976959 6.83516208 91.25976958a5274.67385955 5274.67385955 0 0 0 67.19171364-63.67056994z m9.81777824 18.01997274c-7.45654045 6.37948419-77.05091792 63.67056995-77.05091792 63.67056995 11.51621287 7.45654045 37.57267839 29.74331092 37.5726796 29.74331214 27.75490014-35.04574009 39.47823954-93.41388208 39.47823832-93.41388209z m20.29836092-10.60485711c1.03563022 15.90728628-24.56515865 85.95734164-24.56515866 85.95734042l91.7568723-49.87597012-67.19171364-36.0813703z m-49.08889127 119.92602548c10.68770797 8.49217066 18.97275331 62.63493973 18.97275211 62.63493973 9.36210037-13.79459982 97.3078528-125.22845465 97.3078528-125.22845464-69.34582613 40.30674322-116.28060611 62.59351491-116.28060491 62.59351491z m142.91702519-63.67057117c-5.30242916 12.71754357-99.17198791 116.73628277-99.17198792 116.73628399 24.77228396-9.52780208 178.12846577-57.29108575 178.12846577-57.29108574-20.25693488-30.77894235-78.91505303-59.44519702-78.91505303-59.44519825z m-160.97842396 87.03439789c-7.37368959 12.71754357-136.62039062 118.89039527-136.62039063 118.89039406 20.29835969-13.79459982 154.68178941-74.3168531 154.6817894-74.3168531 2.11268645-31.85599739-18.06139756-44.57354218-18.06139877-44.57354096z m-72.61841849 20.00838353c25.60078885-16.07298677 56.5454317-43.37221025 56.54543172-43.37221025-8.53359669-10.60485712-26.67784511-15.90728628-26.67784511-15.90728628-1.07705625 9.52780208-29.82616178 59.27949653-29.82616177 59.27949653z m51.20157773-12.59326912c-46.10627508 19.59413168-85.33596327 55.71692681-85.33596327 55.71692802L310.05005747 606.86376414l128.0039443-111.43385361z m184.549376 12.59326912l-82.14622056 27.75490014s64.00197215 38.19405676 87.49007455 47.76328367c0 0 2.11268645-47.01762962-5.34385399-75.51818381z m-2.11268646 88.2357286l-94.946615-56.21403072s3.43829405 80.65491248-10.02490477 112.51091107c0 0 91.0940691-42.50228053 104.97151977-56.29688035z m-104.97151977 74.31685309s51.61582956 39.27111301 99.62766578 50.95302637c0 0 19.75983218-53.06571283 13.0903706-110.39822461 0 0-89.68561186 53.06571283-112.71803638 59.44519824z m-13.46319763-123.11576819l-72.74269414 29.70188611c22.9909997 54.05991822 59.94229972 75.39390934 59.94229972 75.39390934 23.4881024-55.21982411 12.84181925-105.09579545 12.84181925-105.09579545z m-86.95154703 36.08137031c2.69264001 13.79459982-70.91998508 137.94599822-70.91998386 137.94599822 93.86955875-28.58340503 133.51349877-55.13697447 133.51349878-55.13697326-54.26704475-48.84033991-62.55208889-82.80902375-62.55208888-82.80902496z m-34.63148703 12.71754479c-12.84181925 4.26679774-77.87942283 38.23548279-77.87942283 38.23548158 2.11268645 62.63493973 15.99013714 79.57785622 15.99013715 79.57785744 30.94464285-30.77894235 61.88928569-117.81333902 61.88928568-117.81333902zM320.48921409 761.79410489L232.17063465 875.2163705l4.68105079 6.33805938 164.5824173-59.9008749c-42.04660266-23.11527538-80.94488864-59.85945008-80.94488865-59.85945009zM246.87659022 883.58426548c38.93971081 35.70854329 107.24990672 45.15349451 107.24990673 45.15349451l59.9008749-90.30698901-167.15078163 45.1534945z m191.09456069-45.1534945c0.8285049 6.29663456-75.43533417 98.59203436-75.43533416 98.59203435 48.34323722-2.31981298 216.61249991-67.108864 216.61249991-67.108864-71.37566174-1.03563022-141.17716575-31.48317036-141.17716575-31.48317035z m109.56971971 128.12821996c10.48058144-12.5932679 36.03994548-85.04598589 36.03994549-85.0459871-84.79743454 35.70854329-187.4077165 55.50980149-187.4077165 55.50980149 34.30008605 19.88410785 151.36777102 29.53618561 151.36777101 29.53618561z m-116.28060611-153.8532845c34.79718875-52.19578311 49.21316693-119.22179626 49.21316694-119.22179747-13.46319762 9.44495123-136.86894197 50.41449885-136.86894198 50.41449885a232.18838399 232.18838399 0 0 0 87.65577504 68.76587259z m25.84934021-13.13179663c26.30501808 1.03563022 159.27998934-64.08482301 159.27998935-64.084823-28.91480724-6.29663456-106.71137921-47.26618097-106.71137922-47.26618098l-52.56861013 111.35100398z m-10.48058144 22.03821913c18.88990245 22.07964516 136.95179283 43.08223408 136.95179283 43.08223408 19.67698132-24.68943431 32.80877795-120.7959552 32.80877796-120.7959552-5.79953186 11.55763769-169.76057078 77.71372112-169.76057079 77.71372112zM280.22389569 652.9286144c-105.42719644 46.81050431-118.35186654 117.48193682-118.35186654 117.48193682 19.38700515 0 139.85155815-34.83861356 139.85155816-34.83861357-23.65380289-50.78732588-21.54111644-82.64332325-21.54111644-82.64332325z m-118.35186654 126.42978535s-5.38527881 44.82209351 53.81136688 82.64332327c0 0 75.26963367-90.5969664 80.65491247-108.5340883 0 0-98.96486139 25.89076502-134.46627935 25.89076503z" fill="#2e5970" p-id="8532"></path></svg>