<?xml version="1.0" standalone="no"?><!DOCTYPE svg PUBLIC "-//W3C//DTD SVG 1.1//EN" "http://www.w3.org/Graphics/SVG/1.1/DTD/svg11.dtd"><svg t="1635763755276" class="icon" viewBox="0 0 1024 1024" version="1.1" xmlns="http://www.w3.org/2000/svg" p-id="64275" xmlns:xlink="http://www.w3.org/1999/xlink" width="16" height="16"><defs><style type="text/css"></style></defs><path d="M403.560078 857.941949H149.064371V278.473402h725.325276v145.094629h72.797557V132.616673a73.366287 73.366287 0 0 0-0.841722-11.090253 72.274324 72.274324 0 0 0-4.879711-17.255295q-0.693852-1.637945-1.455952-3.219017-1.535573-3.184893-3.412385-6.187793t-3.924243-5.812429q-2.09293-2.798156-4.447476-5.391569t-4.845587-4.936585q-2.582038-2.354546-5.391569-4.447475t-5.81243-3.924244q-3.002899-1.819939-6.187792-3.412385-1.592447-0.762099-3.219017-1.455951a72.274324 72.274324 0 0 0-17.255296-4.879711 73.366287 73.366287 0 0 0-11.090253-0.841722h-725.3594a73.366287 73.366287 0 0 0-11.090253 0.841722 72.274324 72.274324 0 0 0-17.243921 4.90246q-1.637945 0.693852-3.219017 1.455951-3.184893 1.535573-6.187792 3.412386t-5.778306 3.901494q-2.798156 2.09293-5.391569 4.447475t-4.982083 4.982083q-2.354546 2.582038-4.447476 5.391569t-3.924243 5.81243q-1.819939 3.002899-3.412385 6.187792-0.762099 1.592447-1.455951 3.219017a72.274324 72.274324 0 0 0-4.822838 17.209797 73.366287 73.366287 0 0 0-0.841722 11.090253v725.325276a72.797556 72.797556 0 0 0 72.797556 72.797557h254.495707z" fill="#2e5970" p-id="64276"></path><path d="M694.750303 163.328142a36.398778 36.398778 0 0 0-72.797557 0v260.239889l72.797557-37.53624zM403.560078 717.03318V163.328142a36.398778 36.398778 0 0 0-72.797556 0v260.239889H121.731164a36.398778 36.398778 0 0 0 0 72.797556h209.031358v147.870036H121.731164a36.398778 36.398778 0 0 0 0 72.797557h209.031358v147.597045a36.398778 36.398778 0 0 0 72.797556 0zM732.22967 970.982905L477.23348 832.997412V553.02256l254.99619-137.996867 254.996189 137.996867v279.974852zM550.031036 789.614618l182.198634 98.59519 182.198633-98.59519V596.405354l-182.198633-98.606565-182.198634 98.606565z" fill="#2e5970" p-id="64277"></path><path d="M767.604732 934.117767h-72.797556V721.389658l-162.816285-94.750569 36.614896-62.913013 198.998945 115.804988v254.586703z" fill="#2e5970" p-id="64278"></path><path d="M712.981541 669.012954l182.326029-105.266404 36.398778 63.044959-182.326029 105.266404z" fill="#2e5970" p-id="64279"></path></svg>