<?xml version="1.0" standalone="no"?><!DOCTYPE svg PUBLIC "-//W3C//DTD SVG 1.1//EN" "http://www.w3.org/Graphics/SVG/1.1/DTD/svg11.dtd"><svg t="1635762824517" class="icon" viewBox="0 0 1024 1024" version="1.1" xmlns="http://www.w3.org/2000/svg" p-id="41698" xmlns:xlink="http://www.w3.org/1999/xlink" width="16" height="16"><defs><style type="text/css"></style></defs><path d="M212.836433 412.393421l49.789986 0 0 398.792659-49.789986 0 0-398.792659Z" p-id="41699" fill="#2e5970"></path><path d="M212.836433 312.696792l49.789986 0 0 49.845245-49.789986 0 0-49.845245Z" p-id="41700" fill="#2e5970"></path><path d="M63.46545 63.451124l0 897.285017 896.224872 0L959.690322 63.451124 63.46545 63.451124zM909.900336 910.887826l-796.643875 0 2.074242-789.348726 796.643875 0L909.900336 910.887826z" p-id="41701" fill="#2e5970"></path><path d="M362.207415 811.18608l49.789986 0L411.997402 462.240713l99.580996 0 0-49.848315L411.997402 412.392398c0-82.59309 66.875107-149.546991 149.370982-149.546991l0-49.848315c-109.995183 0-199.160969 89.272209-199.160969 199.395306l-49.789986 0 0 49.848315 49.789986 0L362.207415 811.18608z" p-id="41702" fill="#2e5970"></path><path d="M638.090766 800.871153c-14.58723-45.435819-23.834848-109.632933-23.834848-181.429119s9.247618-135.993301 23.834848-181.429119c-43.332924 31.155581-73.624834 100.491739-73.624834 181.429119S594.758865 769.715573 638.090766 800.871153z" p-id="41703" fill="#2e5970"></path><path d="M813.416887 619.442034c0-80.936357-30.29191-150.273539-73.624834-181.429119 14.58723 45.435819 23.834848 109.632933 23.834848 181.429119s-9.247618 135.993301-23.834848 181.429119C783.124977 769.715573 813.416887 700.378391 813.416887 619.442034z" p-id="41704" fill="#2e5970"></path></svg>