<?xml version="1.0" standalone="no"?><!DOCTYPE svg PUBLIC "-//W3C//DTD SVG 1.1//EN" "http://www.w3.org/Graphics/SVG/1.1/DTD/svg11.dtd"><svg t="1635759753960" class="icon" viewBox="0 0 1030 1024" version="1.1" xmlns="http://www.w3.org/2000/svg" p-id="14382" xmlns:xlink="http://www.w3.org/1999/xlink" width="16.09375" height="16"><defs><style type="text/css"></style></defs><path d="M790.153077 0v95.970009h143.955014v143.955014h95.97001V0h-239.925024zM0 239.925023h95.970009V95.970009h143.955014V0H0v239.925023zM95.970009 784.074977H0v239.925023h239.925023v-95.970009H95.970009v-143.955014zM934.108091 928.029991h-143.955014v95.970009h239.925024v-239.925023h-95.97001v143.955014zM743.127773 345.172134l-236.726024-135.317714-234.166822 135.317714-16.954702 9.597001v289.829428l231.927523 132.758513 19.194001 12.156201 21.753203-12.156201 229.368322-132.758513v-289.829428z m-236.726024-87.012809l191.940019 111.005311-191.940019 113.564511-191.940018-113.564511zM298.786629 620.286161v-210.174321l188.421119 108.766011v210.17432z m417.789441 0l-188.421118 108.76601v-210.17432l188.421118-108.766011z m0 0" fill="#2e5970" p-id="14383"></path><path d="M505.761949 808.067479l-25.911902-17.274602-240.564824-136.917213V345.492034L506.401749 191.940019l267.116527 154.831615v307.42393z m-234.806623-172.746017l235.766323 135.637613 13.435802-7.3577 221.050921-127.960013v-271.915026l-5.4383-5.118401-229.368323-130.199313-235.126523 135.637614z m240.884724 121.562012v-247.282724l220.411122-127.960013v246.962824z m31.990003-228.728522v173.065916l156.751015-90.211808v-173.065917z m-40.947204 228.728522l-220.411121-127.960013V383.880037l220.411121 127.960013zM314.781631 611.00906l156.431115 90.211808v-173.065916l-156.431115-90.211809z m191.940018-109.725711l-223.930021-132.118713 223.930021-127.960012 223.930022 127.960012z m-159.950015-131.798813l159.950015 95.970009 159.950016-95.970009-159.950016-92.771009z" fill="#2e5970" p-id="14384"></path></svg>