<?xml version="1.0" standalone="no"?><!DOCTYPE svg PUBLIC "-//W3C//DTD SVG 1.1//EN" "http://www.w3.org/Graphics/SVG/1.1/DTD/svg11.dtd"><svg t="1635762137451" class="icon" viewBox="0 0 1024 1024" version="1.1" xmlns="http://www.w3.org/2000/svg" p-id="19796" xmlns:xlink="http://www.w3.org/1999/xlink" width="16" height="16"><defs><style type="text/css"></style></defs><path d="M1010.273916 1023.062193H12.788277c-7.07618 0-12.788277-6.820415-12.788277-15.004912v-30.09508c0-8.355008 5.712097-15.090167 12.788277-15.090167H102.306219V421.245858c0-33.249521 22.933644-60.190159 51.15311-60.190159h204.612439V240.760636c0-33.249521 22.933644-60.190159 51.153109-60.190159h204.612439V60.190159c0-33.249521 22.933644-60.190159 51.153109-60.190159h204.612439c28.219465 0 51.15311 26.940638 51.15311 60.190159v902.681875h89.517942c7.07618 0 12.788277 6.820415 12.788277 15.090167v30.09508c0 8.269753-5.712097 15.004912-12.788277 15.004912zM161.984847 932.691699h196.086921v-511.531096H161.984847v511.531096z m264.291067 13.64083h187.561402V247.24003H426.275914v699.092499z m254.060444 10.230621h170.510366V69.90925h-170.510366v886.6539z" fill="#2e5970" fill-opacity=".65" p-id="19797"></path></svg>