<?xml version="1.0" standalone="no"?><!DOCTYPE svg PUBLIC "-//W3C//DTD SVG 1.1//EN" "http://www.w3.org/Graphics/SVG/1.1/DTD/svg11.dtd"><svg t="1635763306508" class="icon" viewBox="0 0 1024 1024" version="1.1" xmlns="http://www.w3.org/2000/svg" p-id="52081" xmlns:xlink="http://www.w3.org/1999/xlink" width="16" height="16"><defs><style type="text/css"></style></defs><path d="M960 96H64c-35.3 0-64 28.6-64 64v704c0 35.3 28.7 64 64 64h896c35.3 0 64-28.7 64-64V160c0-35.4-28.7-64-64-64z m-80 128c0 8.8-3.6 16.8-9.4 22.6-5.8 5.8-13.8 9.4-22.6 9.4-17.7 0-32-14.3-32-32 0-8.8 3.6-16.8 9.4-22.6 5.8-5.8 13.8-9.4 22.6-9.4s16.8 3.6 22.6 9.4c5.8 5.8 9.4 13.8 9.4 22.6z m-128 0c0 8.8-3.6 16.8-9.4 22.6-5.8 5.8-13.8 9.4-22.6 9.4-17.7 0-32-14.3-32-32 0-8.8 3.6-16.8 9.4-22.6 5.8-5.8 13.8-9.4 22.6-9.4s16.8 3.6 22.6 9.4c5.8 5.8 9.4 13.8 9.4 22.6z m-182.6-22.6c5.8-5.8 13.8-9.4 22.6-9.4s16.8 3.6 22.6 9.4c5.8 5.8 9.4 13.8 9.4 22.6s-3.6 16.8-9.4 22.6c-5.8 5.8-13.8 9.4-22.6 9.4-17.7 0-32-14.3-32-32 0-8.8 3.6-16.8 9.4-22.6zM960 848c0 8.8-7.2 16-16 16H80c-8.8 0-16-7.2-16-16V360c0-4.4 3.6-8 8-8h880c4.4 0 8 3.6 8 8v488z" p-id="52082" fill="#2e5970"></path></svg>