<?xml version="1.0" standalone="no"?><!DOCTYPE svg PUBLIC "-//W3C//DTD SVG 1.1//EN" "http://www.w3.org/Graphics/SVG/1.1/DTD/svg11.dtd"><svg t="1635763286634" class="icon" viewBox="0 0 1024 1024" version="1.1" xmlns="http://www.w3.org/2000/svg" p-id="51882" xmlns:xlink="http://www.w3.org/1999/xlink" width="16" height="16"><defs><style type="text/css"></style></defs><path d="M896 416V288H256v608h128V448a32 32 0 0 1 32-32h480z m0-160V128H128v768h96V288a32 32 0 0 1 32-32h640zM128 96h768a32 32 0 0 1 32 32v768a32 32 0 0 1-32 32H128a32 32 0 0 1-32-32V128a32 32 0 0 1 32-32z m288 352v448h480V448H416z m192-256h160v32h-160V192z m192 0h64v32h-64V192z m-192 160h160v32h-160v-32z m192 0h64v32h-64v-32z m-192 128h160v32h-160v-32z m192 0h64v32h-64v-32z" p-id="51883" fill="#2e5970"></path></svg>