<?xml version="1.0" standalone="no"?><!DOCTYPE svg PUBLIC "-//W3C//DTD SVG 1.1//EN" "http://www.w3.org/Graphics/SVG/1.1/DTD/svg11.dtd"><svg t="1639643280493" class="icon" viewBox="0 0 1024 1024" version="1.1" xmlns="http://www.w3.org/2000/svg" p-id="17898" width="32" height="32" xmlns:xlink="http://www.w3.org/1999/xlink"><defs><style type="text/css"></style></defs><path d="M137.06666667 949.01333333c-39.14666667 0-74.34666667-23.46666667-89.28-59.62666666S41.06666667 811.73333333 68.8 784l477.12-477.12c37.76-37.54666667 98.77333333-37.44 136.42666667 0.21333333 37.65333333 37.65333333 37.76 98.66666667 0.21333333 136.53333334L205.44 920.74666667c-18.13333333 18.13333333-42.66666667 28.26666667-68.37333333 28.26666666z m-50.45333334-147.2c-27.84 27.84-27.84 73.06666667 0 100.90666667 27.84 27.84 73.06666667 27.84 100.90666667 0l477.12-477.01333333c27.84-27.84 27.84-73.06666667 0-100.90666667-27.84-27.84-73.06666667-27.84-100.90666667 0L86.61333333 801.81333333z m0 0" fill="#20A0FF" p-id="17899"></path><path d="M68.69333333 784L409.6 443.2l136.74666667 136.74666667-340.90666667 340.8c-37.76 37.76-98.98666667 37.76-136.74666667 0-18.13333333-18.13333333-28.26666667-42.66666667-28.26666666-68.37333334 0-25.6 10.13333333-50.24 28.26666666-68.37333333z m0 0" fill="#20A0FF" p-id="17900"></path><path d="M317.76 406.72c0-91.52-77.76-165.76-173.65333333-165.76 95.89333333 0 173.65333333-74.24 173.65333333-165.76 0 91.52 77.76 165.76 173.65333333 165.76-95.89333333 0-173.65333333 74.13333333-173.65333333 165.76z m0 0M809.49333333 406.72c0-91.52-77.76-165.76-173.65333333-165.76 95.89333333 0 173.65333333-74.24 173.65333333-165.76 0 91.52 77.76 165.76 173.65333334 165.76-95.89333333 0-173.65333333 74.13333333-173.65333334 165.76z m0 0M809.81333333 682.88c0-61.01333333-51.84-110.50666667-115.73333333-110.50666667 63.89333333 0 115.73333333-49.49333333 115.73333333-110.50666666 0 61.01333333 51.84 110.50666667 115.73333334 110.50666666-63.78666667 0-115.73333333 49.49333333-115.73333334 110.50666667z m0 0" fill="#20A0FF" p-id="17901"></path></svg>