<?xml version="1.0" standalone="no"?><!DOCTYPE svg PUBLIC "-//W3C//DTD SVG 1.1//EN" "http://www.w3.org/Graphics/SVG/1.1/DTD/svg11.dtd"><svg t="1639378832236" class="icon" viewBox="0 0 1024 1024" version="1.1" xmlns="http://www.w3.org/2000/svg" p-id="21706" width="14" height="14" xmlns:xlink="http://www.w3.org/1999/xlink"><defs><style type="text/css"></style></defs><path d="M361.3 252l-94 52.7 52.7-94-52.7-94.2 94.1 52.8 94.2-52.8-52.7 94.2 52.7 94.1-94.3-52.8m452 369.1l94.2-52.7-52.8 94.3 52.8 94-94.2-52.7-94 52.7 52.7-94-52.7-94.3 94 52.7m94.2-504.6l-52.8 94.2 52.8 94.1-94.2-52.8-94 52.7 52.7-94-52.7-94.2 94 52.8 94.2-52.8m-326.1 406l91.9-91.9-79.9-79.8-91.9 91.9 79.9 79.8m38.8-206.7l88 88.1a37.5 37.5 0 0 1 0 53.2L268.7 896.5a37.5 37.5 0 0 1-53 0l-88.2-88.2a37.5 37.5 0 0 1 0-53.1L567 315.8a37.5 37.5 0 0 1 53.2 0z" fill="#6E6E6E" p-id="21707"></path></svg>