<?xml version="1.0" standalone="no"?><!DOCTYPE svg PUBLIC "-//W3C//DTD SVG 1.1//EN" "http://www.w3.org/Graphics/SVG/1.1/DTD/svg11.dtd"><svg t="1639377870457" class="icon" viewBox="0 0 1024 1024" version="1.1" xmlns="http://www.w3.org/2000/svg" p-id="18608" width="14" height="14" xmlns:xlink="http://www.w3.org/1999/xlink"><defs><style type="text/css"></style></defs><path d="M136.192 986.112C66.56 986.112 10.24 927.744 10.24 856.576v-141.312c0-71.68 56.32-130.048 125.952-130.048h241.664c69.632 0 125.952 58.368 125.952 130.048v141.312c0 71.68-56.32 130.048-125.952 130.048H136.192z m0-325.12c-28.672 0-52.224 24.064-52.224 54.272v141.312c0 29.696 23.552 54.272 52.224 54.272h241.152c28.672 0 52.224-24.064 52.224-54.272v-141.312c0-29.696-23.552-54.272-52.224-54.272H136.192z m485.888 308.736c-19.968 0-31.232-15.872-31.744-31.232-0.512-14.848 8.192-32.768 35.84-35.328 26.112-4.608 46.08-8.704 70.144-16.896l1.024-0.512h1.024c9.216 0 40.448-22.528 66.56-53.76l0.512-1.024 1.536-1.024h0.512c14.336-7.168 38.912-48.64 51.712-96.256 0.512-3.072 1.024-5.632 1.536-8.192l0.512-2.56c3.072-16.896 6.144-31.744 6.144-49.152 0-2.048 0-5.12-0.512-10.24-0.512-3.072-0.512-5.632-0.512-8.704l-37.376 45.568c-9.728 10.752-18.944 12.8-25.088 12.8-4.096 0-8.704-1.024-12.8-3.072-9.728-5.12-15.36-11.776-17.408-20.48-2.56-11.264 3.584-21.504 6.144-25.088l0.512-0.512 84.992-105.472c3.072-3.072 20.48-19.456 38.912-19.456 26.112 0 40.448 23.04 44.032 29.184l76.288 110.08s12.288 17.408-9.216 39.936c-7.168 7.168-15.36 11.264-23.04 11.264-9.728 0-15.872-5.632-16.896-6.656l-42.496-56.832v16.896c0 60.928-20.48 119.808-60.928 175.104-40.448 50.688-86.528 83.456-140.8 101.376-2.048 1.024-5.12 2.048-13.312 4.096l-4.096 1.024c-12.288 3.072-23.552 5.12-33.28 6.656h-18.432z m-456.704-451.584c-28.672 0-43.008-26.624-44.544-30.208l-71.68-113.152s-12.288-17.408 9.216-39.424c7.68-7.168 15.36-11.264 23.04-11.264 9.728 0 15.872 5.632 16.896 6.656l42.496 56.32v-1.536-6.144c0.512-25.6 3.584-51.2 8.704-75.776 11.776-48.64 38.912-94.208 82.432-139.776 41.984-38.912 90.624-64 139.776-72.192 17.408-4.608 34.816-4.608 52.224-4.608 9.728 0 15.36 13.312 15.872 26.112 1.024 17.92-7.68 37.888-35.84 40.96l-2.048 0.512c-19.968 4.096-40.448 8.192-59.904 16.384-38.4 15.872-67.584 39.936-94.72 76.8l-4.608 6.656-2.048-1.536c-6.144 8.704-20.992 35.84-28.672 71.168l-0.512 3.072-0.512 1.536v0.512c-0.512 2.048-5.12 25.088-5.12 51.2v4.096c0 3.072 0.512 6.656 0.512 9.728 0 1.536 0 2.56 0.512 4.096l33.792-40.96c9.728-10.752 18.944-12.8 25.088-12.8 4.608 0 8.704 1.024 12.8 3.072 9.728 5.12 15.36 11.776 17.408 19.968 1.536 7.68-0.512 16.896-6.144 25.088v0.512L204.8 498.176c-3.584 3.584-20.992 19.968-39.424 19.968z m471.04-42.496c-69.632 0-125.952-58.368-125.952-130.048V204.8c0-71.68 56.32-130.048 125.952-130.048h241.152C947.2 74.752 1003.52 133.12 1003.52 204.8v141.312c0 71.68-56.32 130.048-125.952 130.048h-241.152z m0-325.12c-28.672 0-52.224 24.064-52.224 54.272v141.312c0 29.696 23.552 54.272 52.224 54.272h241.152c28.672 0 52.224-24.064 52.224-54.272V204.8c0-29.696-23.552-54.272-52.224-54.272h-241.152z" p-id="18609" fill="#6E6E6E"></path></svg>