<?xml version="1.0" standalone="no"?><!DOCTYPE svg PUBLIC "-//W3C//DTD SVG 1.1//EN" "http://www.w3.org/Graphics/SVG/1.1/DTD/svg11.dtd"><svg t="1639642817059" class="icon" viewBox="0 0 1024 1024" version="1.1" xmlns="http://www.w3.org/2000/svg" p-id="14290" xmlns:xlink="http://www.w3.org/1999/xlink" width="32" height="32"><defs><style type="text/css"></style></defs><path d="M985.088 677.888L908.8 568.32c-3.584-6.144-17.92-29.184-44.032-29.184-18.432 0-35.84 16.384-38.912 19.456l-84.992 105.472-0.512 0.512c-2.56 3.584-8.704 13.824-6.144 25.088 2.048 8.704 7.68 15.36 17.408 20.48 4.096 2.048 8.192 3.072 12.8 3.072 6.144 0 15.36-2.048 25.088-12.8l37.376-45.568c0 2.56 0.512 5.632 0.512 8.704 0.512 4.608 0.512 8.192 0.512 10.24 0 17.408-3.072 32.256-6.144 49.152l-0.512 2.56c-0.512 2.56-1.024 5.12-1.536 8.192-12.8 47.616-37.376 88.576-51.712 96.256h-0.512l-1.536 1.024-0.512 1.024c-26.112 31.232-57.856 53.76-66.56 53.76h-2.56c-24.576 8.704-44.544 12.8-70.144 16.896-27.136 2.56-36.352 20.992-35.84 35.328 0.512 15.36 12.288 31.232 31.744 31.232h17.92c9.728-1.536 20.48-3.584 33.28-6.656l4.096-1.024c8.192-2.048 11.264-2.56 13.312-4.096 54.784-17.408 100.864-50.688 140.8-101.376 40.448-55.296 60.928-114.176 60.928-175.104v-6.656-10.24l42.496 56.832c1.024 1.024 7.168 6.656 16.896 6.656 7.68 0 15.36-3.584 23.04-11.264 22.528-20.48 10.24-37.888 10.24-38.4zM424.448 87.552c-17.408 0-34.816 0-52.224 4.608-49.152 8.704-97.792 33.28-139.776 72.192-43.52 45.056-70.656 90.624-82.432 139.776-5.12 25.088-8.192 50.176-8.704 75.776v7.68l-42.496-56.32c-1.024-1.024-7.168-6.656-16.896-6.656-7.68 0-15.36 3.584-23.04 11.264-21.504 22.016-9.216 39.424-9.216 39.424l71.68 113.152c1.536 3.584 15.872 30.208 44.544 30.208 18.432 0 35.84-16.384 38.912-19.456l84.992-105.472v-0.512c5.632-8.192 7.68-16.896 6.144-25.088-2.048-8.192-7.68-15.36-17.408-19.968-4.096-2.048-8.192-3.072-12.8-3.072-6.144 0-15.36 2.048-25.088 12.8l-33.792 40.96c0-1.536 0-2.56-0.512-4.096-0.512-3.072-0.512-6.656-0.512-9.728v-4.096c0-25.6 4.608-49.152 5.12-51.2v-0.512l0.512-1.536 0.512-3.072c7.68-35.328 22.528-61.952 28.672-71.168l2.048 2.048 4.608-6.656c27.136-36.864 56.32-60.416 94.72-76.8 19.968-8.192 40.448-12.288 59.904-16.384l2.048-0.512c28.16-3.072 36.864-23.04 35.84-40.96 0-13.312-5.632-26.624-15.36-26.624z" fill="#1aaba8" p-id="14291"></path><path d="M377.344 585.216H136.192C66.56 585.216 10.24 643.584 10.24 715.264v141.312c0 71.68 56.32 130.048 125.952 130.048h241.152c69.632 0 125.952-58.368 125.952-130.048v-141.312c0-71.68-56.32-130.048-125.952-130.048z m52.736 271.36c0 29.696-23.552 54.272-52.224 54.272H136.192c-28.672 0-52.224-24.064-52.224-54.272v-141.312c0-29.696 23.552-54.272 52.224-54.272h241.152c28.672 0 52.224 24.064 52.224 54.272v141.312zM877.568 74.752h-241.152C566.784 74.752 510.464 133.12 510.464 204.8v141.312c0 71.68 56.32 130.048 125.952 130.048h241.152C947.2 476.16 1003.52 417.792 1003.52 346.112V204.8c0-71.68-56.32-130.048-125.952-130.048z m52.224 271.36c0 29.696-23.552 54.272-52.224 54.272h-241.152c-28.672 0-52.224-24.064-52.224-54.272V204.8c0-29.696 23.552-54.272 52.224-54.272h241.152c28.672 0 52.224 24.064 52.224 54.272v141.312z" fill="#1aaba8" p-id="14292"></path></svg>