<?xml version="1.0" standalone="no"?><!DOCTYPE svg PUBLIC "-//W3C//DTD SVG 1.1//EN" "http://www.w3.org/Graphics/SVG/1.1/DTD/svg11.dtd"><svg t="1635497225410" class="icon" viewBox="0 0 1024 1024" version="1.1" xmlns="http://www.w3.org/2000/svg" p-id="45077" xmlns:xlink="http://www.w3.org/1999/xlink" width="16" height="16"><defs><style type="text/css"></style></defs><path d="M533.333333 64a21.333333 21.333333 0 0 1 21.333334 21.333333v42.666667a21.333333 21.333333 0 0 1-21.333334 21.333333H170.666667v725.333334h362.666666a21.333333 21.333333 0 0 1 21.333334 21.333333v42.666667a21.333333 21.333333 0 0 1-21.333334 21.333333H170.666667a85.333333 85.333333 0 0 1-85.226667-81.066667L85.333333 874.666667V149.333333a85.333333 85.333333 0 0 1 81.066667-85.226666L170.666667 64h362.666666z m194.581334 219.584l183.168 183.168a64 64 0 0 1 2.88 87.424l-2.88 3.072-183.168 183.168a21.333333 21.333333 0 0 1-30.165334 0l-30.165333-30.165333a21.333333 21.333333 0 0 1 0-30.165334L792.96 554.666667H362.666667a21.333333 21.333333 0 0 1-21.333334-21.333334v-42.666666a21.333333 21.333333 0 0 1 21.333334-21.333334h430.293333l-125.376-125.418666a21.333333 21.333333 0 0 1 0-30.165334l30.165333-30.165333a21.333333 21.333333 0 0 1 30.165334 0z" fill="#6E6E6E" p-id="45078"></path></svg>