<?xml version="1.0" standalone="no"?><!DOCTYPE svg PUBLIC "-//W3C//DTD SVG 1.1//EN" "http://www.w3.org/Graphics/SVG/1.1/DTD/svg11.dtd"><svg t="1639103340220" class="icon" viewBox="0 0 1024 1024" version="1.1" xmlns="http://www.w3.org/2000/svg" p-id="18656" width="16" height="16" xmlns:xlink="http://www.w3.org/1999/xlink"><defs><style type="text/css"></style></defs><path d="M341.376 218.368l-106.56 59.712 59.648-106.56-59.648-106.56 106.56 59.712 106.496-59.712-59.648 106.56 59.648 106.56-106.496-59.712z m511.36 417.664l106.56-59.648-59.648 106.496 59.648 106.56-106.56-59.648-106.496 59.648 59.648-106.56-59.648-106.496 106.496 59.648z m106.56-571.072l-59.648 106.56 59.648 106.56-106.56-59.712-106.496 59.712 59.648-106.56-59.648-106.56 106.496 59.712 106.56-59.712zM590.336 524.288l103.744-103.744-90.304-90.432L499.84 433.92l90.432 90.368z m43.776-233.728l99.584 99.52a42.56 42.56 0 0 1 0 60.288l-497.088 497.088a42.624 42.624 0 0 1-60.288 0L76.8 847.936a42.56 42.56 0 0 1 0-60.288L573.888 290.56a42.56 42.56 0 0 1 60.224 0z" p-id="18657" fill="#2e5970"></path></svg>