<?xml version="1.0" standalone="no"?><!DOCTYPE svg PUBLIC "-//W3C//DTD SVG 1.1//EN" "http://www.w3.org/Graphics/SVG/1.1/DTD/svg11.dtd"><svg t="1635496653460" class="icon" viewBox="0 0 1024 1024" version="1.1" xmlns="http://www.w3.org/2000/svg" p-id="32290" xmlns:xlink="http://www.w3.org/1999/xlink" width="16" height="16"><defs><style type="text/css"></style></defs><path d="M874.023385 874.023385C777.321026 970.752 648.743385 1024 512 1024 375.256615 1024 246.678974 970.778256 149.976615 874.023385 53.274256 777.347282 0 648.769641 0 512 0 375.230359 53.274256 246.652718 149.976615 149.976615 246.678974 53.248 375.230359 0 512 0 648.769641 0 777.321026 53.248 874.023385 149.976615 970.752 246.678974 1024 375.230359 1024 512 1024 648.769641 970.752 777.347282 874.023385 874.023385ZM835.95159 188.04841C749.436718 101.481026 634.381128 53.825641 512 53.825641 389.645128 53.825641 274.589538 101.481026 188.022154 188.04841 101.481026 274.563282 53.825641 389.618872 53.825641 512 53.825641 634.354872 101.481026 749.436718 188.022154 835.95159 274.563282 922.518974 389.618872 970.174359 512 970.174359 634.381128 970.174359 749.436718 922.518974 835.95159 835.977846 922.518974 749.436718 970.174359 634.407385 970.174359 512 970.174359 389.645128 922.518974 274.589538 835.95159 188.04841ZM604.632615 534.738051C565.011692 567.007179 545.240615 603.949949 545.240615 645.618872 545.240615 645.618872 544.873026 658.379487 544.873026 658.379487 544.873026 658.379487 544.768 658.484513 544.768 658.484513 543.428923 676.391385 528.489026 690.517333 510.240821 690.517333 491.099897 690.517333 475.582359 674.999795 475.582359 655.858872 475.582359 654.808615 475.661128 653.784615 475.739897 652.734359 475.739897 652.734359 475.739897 652.65559 475.739897 652.65559 475.739897 612.168205 479.59959 582.839795 487.371487 564.644103 495.117128 546.474667 512.813949 525.049436 540.383179 500.420923 540.383179 500.420923 568.556308 475.319795 568.556308 475.319795 606.418051 441.291487 625.322667 407.709538 625.322667 374.573949 625.322667 346.138256 615.108923 322.796308 594.733949 304.626872 574.358974 286.457436 548.470154 277.346462 517.067487 277.346462 435.830154 277.346462 394.948923 323.899077 394.345026 416.978051 394.345026 417.056821 394.371282 417.13559 394.371282 417.214359 394.371282 417.345641 394.345026 417.476923 394.345026 417.608205 394.345026 418.107077 394.345026 418.553436 394.345026 419.026051 394.345026 419.026051 394.318769 419.026051 394.318769 419.026051 393.373538 438.744615 377.094564 454.419692 357.165949 454.419692 337.211077 454.419692 320.932103 438.744615 319.986872 419.026051 319.986872 419.026051 319.934359 419.026051 319.934359 419.026051 319.934359 356.246974 337.893744 306.701128 373.838769 270.309744 409.783795 233.918359 458.699487 215.748923 520.585846 215.748923 575.146667 215.748923 619.362462 230.872615 653.233231 261.067487 687.130256 291.288615 704.065641 330.594462 704.065641 378.985026 704.065641 428.557128 670.930051 480.492308 604.632615 534.738051ZM512 729.481846C524.261744 729.481846 536.444718 734.523077 545.109333 743.187692 553.773949 751.852308 558.815179 764.035282 558.815179 776.270769 558.815179 788.532513 553.773949 800.715487 545.109333 809.380103 536.444718 818.044718 524.261744 823.085949 512 823.085949 499.738256 823.085949 487.555282 818.044718 478.890667 809.380103 470.226051 800.715487 465.184821 788.532513 465.184821 776.270769 465.184821 764.035282 470.226051 751.852308 478.890667 743.187692 487.555282 734.523077 499.738256 729.481846 512 729.481846Z" p-id="32291" fill="#6E6E6E"></path></svg>