<?xml version="1.0" standalone="no"?><!DOCTYPE svg PUBLIC "-//W3C//DTD SVG 1.1//EN" "http://www.w3.org/Graphics/SVG/1.1/DTD/svg11.dtd"><svg t="1635496767881" class="icon" viewBox="0 0 1024 1024" version="1.1" xmlns="http://www.w3.org/2000/svg" p-id="35659" xmlns:xlink="http://www.w3.org/1999/xlink" width="16" height="16"><defs><style type="text/css"></style></defs><path d="M861.090909 0H162.909091a69.818182 69.818182 0 0 0-69.818182 69.818182v884.363636a69.818182 69.818182 0 0 0 69.818182 69.818182h698.181818a69.818182 69.818182 0 0 0 69.818182-69.818182V69.818182a69.818182 69.818182 0 0 0-69.818182-69.818182z m23.272727 954.181818a23.272727 23.272727 0 0 1-23.272727 23.272727H162.909091a23.272727 23.272727 0 0 1-23.272727-23.272727V69.818182a23.272727 23.272727 0 0 1 23.272727-23.272727h698.181818a23.272727 23.272727 0 0 1 23.272727 23.272727z m-195.258181-651.636363a178.036364 178.036364 0 0 0-172.683637-182.458182h-1.163636a169.425455 169.425455 0 0 0-122.414546 52.596363 184.32 184.32 0 0 0-51.432727 128.232728 188.974545 188.974545 0 0 0 6.050909 48.174545l-103.330909 108.218182 104.96 17.687273 16.989091 113.338181 106.821818-112.64a168.494545 168.494545 0 0 0 42.356364 5.585455 166.167273 166.167273 0 0 0 37.469091-4.421818l105.658182 111.476363 16.523636-113.338181 104.727273-17.687273-98.676364-104.261818a186.181818 186.181818 0 0 0 8.145455-50.501818z m-291.374546 186.181818l-7.912727-52.363637-52.130909-8.843636L367.010909 395.636364a181.76 181.76 0 0 0 24.436364 32.814545 176.174545 176.174545 0 0 0 35.374545 28.392727z m27.461818-93.090909a139.636364 139.636364 0 0 1 0-191.767273 123.345455 123.345455 0 0 1 89.134546-38.4 131.490909 131.490909 0 0 1 126.603636 135.68 131.490909 131.490909 0 0 1-127.534545 133.818182A123.578182 123.578182 0 0 1 425.192727 395.636364z m260.887273 30.254545l-52.130909 8.843636-7.68 52.363637-26.996364-28.625455a178.734545 178.734545 0 0 0 61.44-59.578182zM744.727273 744.727273a23.272727 23.272727 0 0 1-23.272728 23.272727H302.545455a23.272727 23.272727 0 0 1 0-46.545455h418.90909a23.272727 23.272727 0 0 1 23.272728 23.272728z m-69.818182 116.363636a23.272727 23.272727 0 0 1-23.272727 23.272727H372.363636a23.272727 23.272727 0 0 1 0-46.545454h279.272728a23.272727 23.272727 0 0 1 23.272727 23.272727z" p-id="35660" fill="#6E6E6E"></path></svg>