<?xml version="1.0" standalone="no"?><!DOCTYPE svg PUBLIC "-//W3C//DTD SVG 1.1//EN" "http://www.w3.org/Graphics/SVG/1.1/DTD/svg11.dtd"><svg t="1635496963684" class="icon" viewBox="0 0 1024 1024" version="1.1" xmlns="http://www.w3.org/2000/svg" p-id="41323" xmlns:xlink="http://www.w3.org/1999/xlink" width="16" height="16"><defs><style type="text/css"></style></defs><path d="M723.627 0h-552.96c-54.614 0-102.4 47.787-102.4 102.4v819.2c0 54.613 47.786 102.4 102.4 102.4h682.666c54.614 0 102.4-47.787 102.4-102.4V266.24L723.627 0zM696.32 75.093l143.36 163.84H696.32V75.093z m157.013 880.64H170.667c-20.48 0-34.134-13.653-34.134-34.133V102.4c0-20.48 13.654-34.133 34.134-34.133h457.386V307.2h259.414v614.4c0 20.48-13.654 34.133-34.134 34.133z" p-id="41324" fill="#6E6E6E"></path><path d="M550.4 704L704 384h-76.8L512 640 403.2 384H320l147.2 320zM256 768h512v64H256z" p-id="41325" fill="#6E6E6E"></path></svg>