<?xml version="1.0" standalone="no"?><!DOCTYPE svg PUBLIC "-//W3C//DTD SVG 1.1//EN" "http://www.w3.org/Graphics/SVG/1.1/DTD/svg11.dtd"><svg t="1635759655955" class="icon" viewBox="0 0 1024 1024" version="1.1" xmlns="http://www.w3.org/2000/svg" p-id="3432" xmlns:xlink="http://www.w3.org/1999/xlink" width="16" height="16"><defs><style type="text/css"></style></defs><path d="M45.96622222 45.96622222v931.5821037h931.5821037V45.96622222H45.96622222z m853.90980741 853.90980741H123.63851852V123.63851852h776.23751111v776.23751111z" p-id="3433" fill="#2e5970"></path><path d="M434.08497778 512.36408889h154.61641481c85.56088889 0 155.46595555-70.02642963 155.46595556-155.46595556 0-85.68225185-69.90506667-155.58731852-155.46595556-155.58731851h-154.13096296-78.15774815v621.13564443h77.6722963V512.36408889z m0.36408889-233.38097778h154.25232592c20.6317037 0 40.17114075 8.13131852 54.85605926 22.9376 14.80628148 14.80628148 22.9376 34.34571852 22.9376 54.85605926 0 20.6317037-8.13131852 40.17114075-22.9376 54.85605926-14.80628148 14.80628148-34.34571852 22.9376-54.85605926 22.9376h-154.13096296-0.12136296V278.98311111z" p-id="3434" fill="#2e5970"></path></svg>