<?xml version="1.0" standalone="no"?><!DOCTYPE svg PUBLIC "-//W3C//DTD SVG 1.1//EN" "http://www.w3.org/Graphics/SVG/1.1/DTD/svg11.dtd"><svg t="1638341397714" class="icon" viewBox="0 0 1024 1024" version="1.1" xmlns="http://www.w3.org/2000/svg" p-id="12325" width="14" height="14" xmlns:xlink="http://www.w3.org/1999/xlink"><defs><style type="text/css"></style></defs><path d="M450.235284 897.17143c-6.412037 0-12.825097-3.206018-16.031115-3.206018-9.618055-6.412037-16.031115-19.237133-16.031115-28.855188l0-278.938943-282.144962-407.185816c-6.412037-9.618055-9.618055-22.443152-3.206018-35.268248 6.41306-9.618055 16.031115-16.031115 28.856211-16.031115l705.361893 0c12.825097 0 22.443152 6.412037 28.855188 16.031115 6.41306 9.618055 3.206018 22.443152-3.206018 32.06223l-282.143938 410.391834 0 214.814484c0 12.825097-6.41306 22.443152-19.237133 28.856211l-128.247896 64.123436C459.854363 897.17143 456.648344 897.17143 450.235284 897.17143z" p-id="12326" fill="#6E6E6E"></path></svg>