<?xml version="1.0" standalone="no"?><!DOCTYPE svg PUBLIC "-//W3C//DTD SVG 1.1//EN" "http://www.w3.org/Graphics/SVG/1.1/DTD/svg11.dtd"><svg t="1638339408588" class="icon" viewBox="0 0 1024 1024" version="1.1" xmlns="http://www.w3.org/2000/svg" p-id="11383" width="14" height="14" xmlns:xlink="http://www.w3.org/1999/xlink"><defs><style type="text/css"></style></defs><path d="M853.5 69.1H171.4C112.2 69.1 64 120.2 64 183v548.5c0 62.8 48.2 113.9 107.4 113.9h367.8L699.3 942l0.5 0.5c7.5 8 17.4 12.3 28 12.3s20.5-4.4 28-12.3c15.5-16.5 15.7-43.3 0.4-60L584.4 772.7l-0.4-0.5c-8.9-9.5-21.2-13.8-33.6-11.9l-0.4 0.1H194c-27.5 0-49.8-23.6-49.8-52.6V210c0-13.9 5.2-27.9 14.3-38.5 9.6-11.2 22.2-17.3 35.5-17.3h635.5c13.3 0 25.9 6.1 35.5 17.3 9.1 10.6 14.3 24.6 14.3 38.5v497.8c0 29-22.4 52.6-49.8 52.6h-15.9l-0.4-0.1c-2.2-0.4-4.3-0.6-6.5-0.6-22.4 0-40.6 19.3-40.6 42.9 0 23.7 18.2 42.9 40.6 42.9 0.9 0 1.9 0 3.1-0.1H853.5c58.8 0 106.7-51.1 106.7-113.9V183c0-62.8-47.9-113.9-106.7-113.9z" fill="#6E6E6E" p-id="11384"></path><path d="M452.5 357.2c-12.9-12.9-34.5-12.9-47.4 0l-94.9 94.4c-8.6 8.6-8.6 17.2-8.6 25.7 0 8.6 4.3 17.2 8.6 25.7l94.9 94.4c4.3 4.3 12.9 8.6 21.6 8.6 8.6 0 17.3-4.3 21.6-8.6 12.9-12.9 12.9-34.3 0-47.2L375 477.3l73.3-72.9c17.1-12.8 17.1-34.3 4.2-47.2zM583.1 597.4c4.3 4.3 12.9 8.6 21.6 8.6 8.6 0 17.2-4.3 21.6-8.6l94.9-94.4c8.6-8.6 8.6-17.2 8.6-25.7 0-8.6-4.3-17.2-8.6-25.7l-90.6-94.4c-12.9-12.9-34.5-12.9-47.4 0-12.9 12.9-12.9 34.3 0 47.2l73.3 72.9-73.3 72.9c-13 12.9-13 34.4-0.1 47.2z" fill="#6E6E6E" p-id="11385"></path></svg>