<?xml version="1.0" standalone="no"?><!DOCTYPE svg PUBLIC "-//W3C//DTD SVG 1.1//EN" "http://www.w3.org/Graphics/SVG/1.1/DTD/svg11.dtd"><svg t="1638344047793" class="icon" viewBox="0 0 1024 1024" version="1.1" xmlns="http://www.w3.org/2000/svg" p-id="13731" width="14" height="14" xmlns:xlink="http://www.w3.org/1999/xlink"><defs><style type="text/css"></style></defs><path d="M424 120c167.624 0 304 136.376 304 304S591.624 728 424 728 120 591.624 120 424s136.376-304 304-304m0-56C225.168 64 64 225.176 64 424c0 198.832 161.168 360 360 360s360-161.168 360-360C784 225.176 622.832 64 424 64zM948.8 892.232L735.832 679.264a405.88 405.88 0 0 1-56.552 56.56l212.96 212.968a39.88 39.88 0 0 0 28.28 11.72 39.824 39.824 0 0 0 28.28-11.72 39.984 39.984 0 0 0 0-56.56z" fill="#6E6E6E" p-id="13732"></path></svg>