<?xml version="1.0" standalone="no"?><!DOCTYPE svg PUBLIC "-//W3C//DTD SVG 1.1//EN" "http://www.w3.org/Graphics/SVG/1.1/DTD/svg11.dtd"><svg t="1638348687732" class="icon" viewBox="0 0 1024 1024" version="1.1" xmlns="http://www.w3.org/2000/svg" p-id="17031" width="16" height="16" xmlns:xlink="http://www.w3.org/1999/xlink"><defs><style type="text/css"></style></defs><path d="M1018.812775 648.565899c1.442188 8.746172 1.116533 19.30671-1.07001 31.728136a191.113171 191.113171 0 0 1-10.979238 37.776021c-5.117441 12.747081-11.304893 24.238063-18.608877 34.426423-7.303984 10.234883-15.352324 17.538867-24.051974 21.911953a52.895734 52.895734 0 0 1-22.981964 6.559629 64.665849 64.665849 0 0 1-21.911953-4.373086 227.726137 227.726137 0 0 0-27.355049-6.047885 127.517332 127.517332 0 0 0-33.402935-1.07001 160.734178 160.734178 0 0 0-33.961202 7.117895 66.340648 66.340648 0 0 0-28.983326 18.608878c-17.492345 18.283222-27.727227 39.078642-30.658126 62.432783-2.884376 23.307619 0.372178 45.59175 9.862705 66.759348 7.303984 14.607969 6.187452 29.169415-3.256553 43.777384a81.87906 81.87906 0 0 1-20.841943 18.050611 229.540502 229.540502 0 0 1-31.169869 16.980601c-11.304893 5.117441-23.168052 9.11835-35.589478 12.049248a145.567943 145.567943 0 0 1-32.844669 4.373086 27.913316 27.913316 0 0 1-18.608877-7.676162 41.451274 41.451274 0 0 1-12.049248-16.422334h-1.070011a135.333061 135.333061 0 0 0-41.032575-58.571442 100.906638 100.906638 0 0 0-67.364136-24.61024c-24.796329 0-47.220026 8.187906-67.317614 24.656762-20.051065 16.375812-34.100768 35.542956-42.102585 57.454909a37.264277 37.264277 0 0 1-16.422334 19.120622c-7.303984 4.047431-15.352324 6.047885-24.098496 6.047885-10.234883 0-21.725864-1.860888-34.472945-5.489619a321.375312 321.375312 0 0 1-38.334288-13.677525 183.297442 183.297442 0 0 1-34.426423-19.167144 95.277452 95.277452 0 0 1-23.028486-21.865431 33.402935 33.402935 0 0 1-6.047885-18.050611c-0.325655-6.978329 2.419154-16.608423 8.234428-29.029848 8.048339-16.74799 11.165326-35.961656 9.304439-57.454909-1.860888-21.539776-11.165326-41.404752-27.913316-59.687974a71.178956 71.178956 0 0 0-37.217755-21.307165 151.150607 151.150607 0 0 0-41.590841-3.861342c-15.352324 0.744355-31.030303 3.675253-47.08046 8.746172a44.614784 44.614784 0 0 1-30.658125-2.186543c-8.001817-2.884376-15.49189-9.630094-22.423697-20.237154a226.749171 226.749171 0 0 1-31.16987-74.435509c-2.930898-13.491436-3.721775-24.656763-2.233065-33.402935 2.186543-16.050157 9.490527-26.238517 21.865431-30.611604 21.911953-8.792695 41.637363-23.168052 59.129708-43.26564 17.538867-20.051065 26.285039-42.521285 26.285039-67.317613 0-25.540684-8.746172-47.778293-26.285039-66.759348a162.083322 162.083322 0 0 0-59.083186-41.590841c-6.559629-2.186543-12.049248-7.490073-16.422334-15.864068a55.035755 55.035755 0 0 1-6.55963-25.726773c0-9.490527 1.442188-20.097588 4.373087-31.774658 2.930898-11.630548 6.745718-22.981964 11.490981-33.961201 4.745264-10.886193 10.234883-20.934987 16.422335-30.053337 6.187452-9.11835 12.93317-15.864068 20.237154-20.283677a25.354595 25.354595 0 0 1 16.9806-4.373086c5.489619 0.744355 11.490982 2.186543 18.050611 4.373086 21.865431 8.792695 44.661306 11.537504 68.387625 8.234429 23.726319-3.256554 44.707828-13.677525 62.99105-31.16987 8.746172-8.792695 15.119713-19.539321 19.120621-32.332924 4.047431-12.747081 6.606151-25.354595 7.676162-37.776021 1.116533-12.374903 1.116533-23.726319 0-33.91468a430.5629 430.5629 0 0 0-2.744809-21.86543 117.142883 117.142883 0 0 1-3.81482-15.352324 23.726319 23.726319 0 0 1 1.628277-15.352324c4.373086-10.18836 12.235337-19.120622 23.54023-26.796784C276.458135 27.308528 288.693471 20.981509 301.81273 15.864068a238.658852 238.658852 0 0 1 38.334287-11.490982C352.568443 1.767843 362.384626 0.511744 369.642088 0.511744a28.378538 28.378538 0 0 1 22.470219 9.304439c5.443097 6.187452 9.304439 12.560992 11.490982 19.167144 8.001817 19.678888 21.121076 37.031666 39.404298 51.96529 18.2367 14.980146 39.776475 22.470219 64.572805 22.470219 25.540684 0 48.15047-7.117896 67.87588-21.400209 19.678888-14.189269 33.542501-32.23988 41.590841-54.151833 2.930898-5.815274 7.443551-11.863159 13.677525-18.050611 6.187452-6.187452 12.560992-9.304439 19.167143-9.304439 10.234883 0 21.353687 1.442188 33.356413 4.373086 12.09577 2.930898 23.912407 6.978329 35.589478 12.049248 11.677071 5.117441 22.423697 11.630548 32.286402 19.678888 9.862705 8.048339 17.678434 16.794512 23.54023 26.28504a25.121984 25.121984 0 0 1 3.256554 19.167143 67.22457 67.22457 0 0 1-4.326564 14.794058 116.072873 116.072873 0 0 0-8.792695 66.759347c3.675253 23.354141 14.235791 43.777384 31.774658 61.316251 17.492345 17.492345 39.03212 27.168961 64.572805 28.983327a141.613557 141.613557 0 0 0 71.178956-12.560992 33.775112 33.775112 0 0 1 21.307164-4.419609c8.373995 0.744355 15.49189 4.047431 21.353687 9.862705 10.932715 10.234883 20.609332 25.726773 28.983327 46.522194 8.373995 20.79542 14.049702 41.77693 16.9806 62.944527 1.48871 12.421426-0.558266 22.098042-6.047885 29.029849a40.799964 40.799964 0 0 1-16.934078 13.677525 128.54082 128.54082 0 0 0-58.013175 42.149107 106.535823 106.535823 0 0 0-24.098497 68.387625c0 24.842851 6.745718 46.522193 20.283677 65.13107 13.491436 18.608877 31.16987 31.914225 53.0353 39.962565 5.117441 2.930898 9.53705 5.815274 13.165781 8.746172 8.048339 6.559629 13.491436 14.980146 16.422334 25.168507z m-508.999318 98.487483a235.402299 235.402299 0 0 0 93.044387-18.608877 233.634455 233.634455 0 0 0 76.063786-51.453546 246.335014 246.335014 0 0 0 50.89528-76.063786c12.421426-28.84376 18.608877-59.641452 18.608877-92.486121s-6.187452-63.688883-18.608877-92.532643a239.682341 239.682341 0 0 0-50.89528-75.50552 238.007542 238.007542 0 0 0-76.063786-50.895279 235.402299 235.402299 0 0 0-93.044387-18.608878c-32.844669 0-63.688883 6.187452-92.486121 18.608878-28.84376 12.374903-54.012267 29.355504-75.552042 50.895279a239.682341 239.682341 0 0 0-50.895279 75.50552c-12.421426 28.84376-18.608877 59.687974-18.608878 92.532643 0 32.844669 6.187452 63.642361 18.608878 92.486121 12.421426 28.84376 29.355504 54.198355 50.895279 76.063786 21.539776 21.865431 46.708282 39.078642 75.552042 51.453546 28.84376 12.421426 59.641452 18.608877 92.486121 18.608877z" p-id="17032" fill="#6E6E6E"></path></svg>