<?xml version="1.0" standalone="no"?><!DOCTYPE svg PUBLIC "-//W3C//DTD SVG 1.1//EN" "http://www.w3.org/Graphics/SVG/1.1/DTD/svg11.dtd"><svg t="1638436567965" class="icon" viewBox="0 0 1024 1024" version="1.1" xmlns="http://www.w3.org/2000/svg" p-id="33859" width="16" height="16" xmlns:xlink="http://www.w3.org/1999/xlink"><defs><style type="text/css"></style></defs><path d="M1018.737778 509.155556c4.266667 12.8 4.266667 21.333333 0 34.133333 0 0-4.266667 12.8-8.533334 17.066667-4.266667 12.8-12.8 25.6-21.333333 42.666666-21.333333 34.133333-51.2 76.8-93.866667 123.733334-81.066667 89.6-209.066667 183.466667-384 183.466666s-302.933333-93.866667-384-183.466666c-42.666667-46.933333-72.533333-89.6-93.866666-123.733334l-21.333334-42.666666c-4.266667-4.266667-8.533333-17.066667-8.533333-17.066667-4.266667-8.533333-4.266667-21.333333 0-34.133333 0 0 4.266667-12.8 8.533333-17.066667 4.266667-12.8 12.8-25.6 21.333334-42.666667 21.333333-34.133333 51.2-76.8 93.866666-123.733333C208.071111 236.088889 336.071111 142.222222 511.004444 142.222222s302.933333 93.866667 384 183.466667c42.666667 46.933333 72.533333 89.6 93.866667 123.733333l21.333333 42.666667c4.266667 4.266667 8.533333 17.066667 8.533334 17.066667z m-507.733334-136.533334c76.8 0 145.066667 68.266667 145.066667 153.6 0 85.333333-68.266667 153.6-145.066667 153.6-76.8 0-145.066667-68.266667-145.066666-153.6 0-85.333333 68.266667-153.6 145.066666-153.6z m-230.4 153.6c0 128 102.4 238.933333 230.4 238.933334s230.4-110.933333 230.4-238.933334-102.4-238.933333-230.4-238.933333-230.4 110.933333-230.4 238.933333z" p-id="33860" fill="#6E6E6E"></path></svg>