<?xml version="1.0" standalone="no"?><!DOCTYPE svg PUBLIC "-//W3C//DTD SVG 1.1//EN" "http://www.w3.org/Graphics/SVG/1.1/DTD/svg11.dtd"><svg t="1638870237570" class="icon" viewBox="0 0 1024 1024" version="1.1" xmlns="http://www.w3.org/2000/svg" p-id="4274" width="16" height="16" xmlns:xlink="http://www.w3.org/1999/xlink"><defs><style type="text/css"></style></defs><path d="M934.016 512c4.48 0 8.064 3.712 8 8.192a429.76 429.76 0 0 1-429.504 421.76A428.48 428.48 0 0 1 174.72 777.6l-47.808 37.376a7.936 7.936 0 0 1-12.928-6.272l0.832-161.728c0-5.12 4.864-8.896 9.856-7.68l156.8 38.272c6.528 1.664 8.32 10.048 3.008 14.08l-49.92 39.168a357.952 357.952 0 0 0 140.352 107.264c43.52 18.56 89.92 27.84 137.6 27.84a352 352 0 0 0 249.984-103.68 352.64 352.64 0 0 0 103.488-242.432 8.064 8.064 0 0 1 8-7.808z m-558.016 8c4.416 0 8 3.584 8 8v144a8 8 0 0 1-8 8H320a8 8 0 0 1-8-8V528c0-4.416 3.584-8 8-8z m152-176c4.416 0 8 3.584 8 8v320a8 8 0 0 1-8 8h-56a8 8 0 0 1-8-8v-320c0-4.416 3.584-8 8-8z m152 78.016c4.416 0 8 3.584 8 8V672a8 8 0 0 1-8 8H624a8 8 0 0 1-8-8V430.016c0-4.416 3.584-8 8-8zM511.488 81.92a427.392 427.392 0 0 1 337.6 164.608l47.808-37.376a7.936 7.936 0 0 1 12.928 6.272l-0.832 161.536c0 5.12-4.864 8.896-9.92 7.68l-156.8-38.336a8 8 0 0 1-2.944-14.08l49.92-39.04a357.952 357.952 0 0 0-140.224-107.328 349.568 349.568 0 0 0-137.6-27.84 352 352 0 0 0-250.048 103.68 352.64 352.64 0 0 0-103.488 242.432 7.936 7.936 0 0 1-7.872 7.808h-60.032a8 8 0 0 1-8-8.192 429.76 429.76 0 0 1 429.504-421.76z" p-id="4275" fill="#6E6E6E"></path></svg>