<?xml version="1.0" standalone="no"?><!DOCTYPE svg PUBLIC "-//W3C//DTD SVG 1.1//EN" "http://www.w3.org/Graphics/SVG/1.1/DTD/svg11.dtd"><svg t="1635912710261" class="icon" viewBox="0 0 1024 1024" version="1.1" xmlns="http://www.w3.org/2000/svg" p-id="11450" xmlns:xlink="http://www.w3.org/1999/xlink" width="32" height="32"><defs><style type="text/css"></style></defs><path d="M964 1024H60a60 60 0 0 1-60-60V60A60 60 0 0 1 60 0h904a60 60 0 0 1 60 60v904a60 60 0 0 1-60 60zM173.886 357.751q-159.9 156.558-150.494 371.82c6.268 228.317 357.44 221.8 445.228 163.051 6.265-39.141 25.079-84.8 18.813-208.745 0-19.571-18.826-39.142-43.892-58.713-31.383-13.028-56.453-26.079-81.523-26.079-37.669-6.5-87.809-32.587-112.879-52.157-12.567-6.52-50.161-45.66-62.707-91.323-6.278-13.049-12.546-45.694-12.546-97.854zM293.033 259.9v0.135C255.455 286.1 230.4 312.162 211.6 331.717c-6.267 45.605-6.267 78.241 0 104.317 6.246 39.167 25.07 71.752 50.139 91.323 31.349 19.582 68.975 45.661 87.788 45.661 50.173 6.553 87.821 13.051 137.959 58.712 50.142 39.141 25.071 221.808 25.071 247.886l75.208-39.141v-39.141c6.27-169.65-18.866-221.808-119.145-247.887-231.871-26.073-175.664-228.041-175.588-293.415l0.088-0.063z m18.824-13.048v117.43c0 65.234 37.627 97.866 62.707 123.946s94.056 45.672 131.682 52.157 62.706 26.079 94.067 78.237c18.813 52.192 12.543 182.667 12.543 208.746 18.838-6.52 43.9-26.091 68.976-45.661v-39.142c0-58.711-6.266-104.372-18.814-143.513-12.555-19.537-25.079-39.108-37.626-52.159-25.091-32.587-81.507-39.107-112.88-45.625-18.834-6.543-37.615-13.053-68.971-32.623-87.8-45.66-56.442-247.9-56.442-273.978-18.813 13.053-43.894 26.093-75.242 52.182z m181.854 117.421c-18.811-58.7-12.546-169.575-12.544-215.246l0.053-0.019h-0.053v0.019c-18.828 6.524-43.874 19.57-68.922 39.122l-6.267 65.23c-6.289 78.283 6.256 130.465 25.068 163.084 37.627 52.182 94.091 58.7 144.229 71.752 56.387 19.571 81.466 45.662 100.279 84.8 18.813 45.661 18.813 110.938 18.813 189.175a461.559 461.559 0 0 0 68.976-58.712v-45.715c0-26.079-0.013-52.124-18.814-104.316s-100.369-84.79-144.216-91.32c-43.897-13.053-87.789-45.698-106.602-97.854z m470.3-169.606C888.766 90.3 744.529 70.725 550.151 129.424c-18.814 71.765-18.814 150.044-6.266 221.8 25.067 97.854 150.482 97.854 188.162 117.459 43.839 19.57 81.466 58.7 100.279 156.554 6.27 19.581 6.27 32.61 6.27 45.661C1001.63 475.163 1039.22 318.61 964.007 194.667z" fill="#2e5970" p-id="11451"></path></svg>