<?xml version="1.0" standalone="no"?><!DOCTYPE svg PUBLIC "-//W3C//DTD SVG 1.1//EN" "http://www.w3.org/Graphics/SVG/1.1/DTD/svg11.dtd"><svg t="1638171554610" class="icon" viewBox="0 0 1024 1024" version="1.1" xmlns="http://www.w3.org/2000/svg" p-id="9464" xmlns:xlink="http://www.w3.org/1999/xlink" width="16" height="16"><defs><style type="text/css"></style></defs><path d="M978.368 0H45.632A45.76 45.76 0 0 0 0 45.76v804.48A45.76 45.76 0 0 0 45.632 896h274.176v-64H64V64h896v768h-258.432v64h276.8a45.76 45.76 0 0 0 45.632-45.76V45.76A45.76 45.76 0 0 0 978.368 0z" fill="#6E6E6E" p-id="9465"></path><path d="M781.184 615.36a32 32 0 0 0 22.656-54.592L536.448 293.376a29.44 29.44 0 0 0-1.792-2.752 33.28 33.28 0 0 0-46.208 0 29.44 29.44 0 0 0-1.792 2.752L220.16 559.872a32 32 0 1 0 45.248 45.248l213.76-213.76V992a32 32 0 0 0 64 0V390.592l215.424 215.424a31.872 31.872 0 0 0 22.592 9.344z" fill="#6E6E6E" p-id="9466"></path></svg>