<?xml version="1.0" standalone="no"?><!DOCTYPE svg PUBLIC "-//W3C//DTD SVG 1.1//EN" "http://www.w3.org/Graphics/SVG/1.1/DTD/svg11.dtd"><svg t="1635815201720" class="icon" viewBox="0 0 1024 1024" version="1.1" xmlns="http://www.w3.org/2000/svg" p-id="81021" width="16" height="16" xmlns:xlink="http://www.w3.org/1999/xlink"><defs><style type="text/css"></style></defs><path d="M1023.952216 427.946038V66.377134a56.886234 56.886234 0 0 0-56.317372-56.032941h-378.86232a56.886234 56.886234 0 0 0-56.317372 56.032941v361.682677a56.886234 56.886234 0 0 0 56.317372 56.03294h378.86232a56.886234 56.886234 0 0 0 56.317372-56.146713zM56.317372 540.011919a56.886234 56.886234 0 0 0-56.317372 56.032941v361.682677a56.886234 56.886234 0 0 0 56.317372 56.032941h378.86232a56.886234 56.886234 0 0 0 56.317371-56.032941v-361.682677a56.886234 56.886234 0 0 0-56.317371-56.032941z m209.910204-244.610807h-56.317372a180.955111 180.955111 0 0 1 179.191638-178.281458h20.479044a24.119763 24.119763 0 0 0 25.598806-25.485033V25.475931a24.119763 24.119763 0 0 0-25.598806-25.485033h-20.479044a296.434166 296.434166 0 0 0-296.946143 295.467101H25.598805c-10.239522 0-15.359283 10.182636-15.359283 20.365271 0 5.119761 0 5.119761 5.119761 10.182636l112.634744 127.368279a24.859284 24.859284 0 0 0 35.838327 0L276.467098 326.005906a15.416169 15.416169 0 0 0 0-20.365271c-5.119761-5.119761-5.119761-10.182636-10.239522-10.182636z m491.497064 427.898254h56.317371a180.955111 180.955111 0 0 1-179.191637 178.281458h-20.479045a24.119763 24.119763 0 0 0-25.598805 25.485033v71.335338a24.119763 24.119763 0 0 0 25.598805 25.485033h20.479045a296.434166 296.434166 0 0 0 296.946142-295.467101h66.556894a13.538924 13.538924 0 0 0 15.359283-15.302397c0-5.119761 0-5.119761-5.119761-10.182636l-112.634743-127.368278a24.859284 24.859284 0 0 0-35.838328 0l-112.634744 127.368278a15.416169 15.416169 0 0 0 0 20.365272c0-5.119761 5.119761 0 10.239523 0z" p-id="81022" fill="#6E6E6E"></path></svg>