<?xml version="1.0" standalone="no"?><!DOCTYPE svg PUBLIC "-//W3C//DTD SVG 1.1//EN" "http://www.w3.org/Graphics/SVG/1.1/DTD/svg11.dtd"><svg t="1635495016797" class="icon" viewBox="0 0 1024 1024" version="1.1" xmlns="http://www.w3.org/2000/svg" p-id="9341" width="16" height="16" xmlns:xlink="http://www.w3.org/1999/xlink"><defs><style type="text/css"></style></defs><path d="M785.237333 181.873778a426.780444 426.780444 0 0 1 42.496 553.927111l144.270223 144.270222a56.888889 56.888889 0 1 1-80.440889 80.440889l-142.791111-142.677333a426.723556 426.723556 0 1 1 36.465777-636.017778z m-563.2 40.220444a369.777778 369.777778 0 1 0 522.979556 522.922667 369.777778 369.777778 0 0 0-522.922667-522.922667z m138.865778 76.231111a28.444444 28.444444 0 0 1-3.185778 40.163556c-44.373333 37.831111-72.021333 82.090667-83.626666 133.518222a227.441778 227.441778 0 0 0 6.087111 125.269333l6.314666 16.497778 6.257778 14.791111 1.194667 4.152889a28.444444 28.444444 0 0 1-12.8 29.696l-4.551111 2.275556a28.444444 28.444444 0 0 1-36.977778-15.928889l0.398222 1.251555c-1.877333-4.209778-10.353778-24.462222-13.767111-34.588444a283.704889 283.704889 0 0 1-7.623111-155.875556c14.336-63.715556 48.64-118.727111 102.172444-164.408888a28.444444 28.444444 0 0 1 40.106667 3.242666z" p-id="9342" fill="#6E6E6E"></path></svg>