<?xml version="1.0" standalone="no"?><!DOCTYPE svg PUBLIC "-//W3C//DTD SVG 1.1//EN" "http://www.w3.org/Graphics/SVG/1.1/DTD/svg11.dtd"><svg t="1637030614622" class="icon" viewBox="0 0 1024 1024" version="1.1" xmlns="http://www.w3.org/2000/svg" p-id="14849" xmlns:xlink="http://www.w3.org/1999/xlink" width="16" height="16"><defs><style type="text/css"></style></defs><path d="M736.5 96.17V341h-449V88h-86.71C141 88 92 137 92 196.79v622.42C92 879 141 928 200.79 928H218V484h588v444h17.21C883 928 932 879 932 819.21V284z" p-id="14850" fill="#2e5970"></path><path d="M549 84h117v178H549zM721.82 562.49l-419-4h-0.33a33.51 33.51 0 0 0-0.31 67l419 4h0.33a33.51 33.51 0 0 0 0.31-67zM721.82 675.24l-419-4h-0.33a33.51 33.51 0 0 0-0.31 67l419 4h0.33a33.51 33.51 0 0 0 0.31-67zM721.82 788l-419-4h-0.33a33.51 33.51 0 0 0-0.31 67l419 4h0.33a33.51 33.51 0 0 0 0.31-67z" p-id="14851" fill="#2e5970"></path></svg>