<?xml version="1.0" standalone="no"?><!DOCTYPE svg PUBLIC "-//W3C//DTD SVG 1.1//EN" "http://www.w3.org/Graphics/SVG/1.1/DTD/svg11.dtd"><svg t="1635756241264" class="icon" viewBox="0 0 1024 1024" version="1.1" xmlns="http://www.w3.org/2000/svg" p-id="2307" width="16" height="16" xmlns:xlink="http://www.w3.org/1999/xlink"><defs><style type="text/css"></style></defs><path d="M511.2074 65.1817c-246.1645 0-446.4425 200.277-446.4425 446.4425 0 246.1655 200.277 446.4415 446.4425 446.4415 246.1655 0 446.4425-200.276 446.4425-446.4415C957.6509 265.4597 757.3729 65.1817 511.2074 65.1817zM511.2074 902.2618c-215.4004 0-390.6365-175.2371-390.6365-390.6386 0-215.4004 175.2361-390.6365 390.6365-390.6365 215.4015 0 390.6365 175.2361 390.6365 390.6365C901.845 727.0257 726.6089 902.2618 511.2074 902.2618zM670.4497 352.383c-10.8995-10.9005-28.5563-10.9005-39.4568 0L511.2074 472.1674 391.423 352.383c-10.8995-10.9005-28.5573-10.9005-39.4568 0-10.8995 10.8995-10.8995 28.5573 0 39.4568L471.7507 511.6242 351.9662 631.4086c-10.8995 10.9015-10.8995 28.5583 0 39.4557 5.4508 5.4518 12.5891 8.1746 19.7284 8.1746 7.1404 0 14.2787-2.7228 19.7284-8.1746L511.2074 551.0789l119.7855 119.7855c5.4497 5.4518 12.5901 8.1746 19.7294 8.1746 7.1404 0 14.2776-2.7228 19.7284-8.1746 10.9005-10.8984 10.9005-28.5553 0-39.4557L550.6642 511.6242l119.7855-119.7844C681.3491 380.9393 681.3491 363.2824 670.4497 352.383z" p-id="2308" fill="#6E6E6E"></path></svg>