<?xml version="1.0" standalone="no"?><!DOCTYPE svg PUBLIC "-//W3C//DTD SVG 1.1//EN" "http://www.w3.org/Graphics/SVG/1.1/DTD/svg11.dtd"><svg t="1635756213346" class="icon" viewBox="0 0 1024 1024" version="1.1" xmlns="http://www.w3.org/2000/svg" p-id="2016" width="16" height="16" xmlns:xlink="http://www.w3.org/1999/xlink"><defs><style type="text/css"></style></defs><path d="M511.1306 65.1786c-246.1645 0-446.4425 200.278-446.4425 446.4425 0 246.1645 200.278 446.4435 446.4425 446.4435 246.1645 0 446.4425-200.279 446.4425-446.4435C957.5731 265.4566 757.2941 65.1786 511.1306 65.1786zM511.1306 902.2587c-215.4015 0-390.6365-175.2371-390.6365-390.6376 0-215.4015 175.2361-390.6365 390.6365-390.6365s390.6365 175.2361 390.6365 390.6365C901.7672 727.0216 726.5311 902.2587 511.1306 902.2587zM586.6639 324.4769c-10.8995-10.8995-28.5563-10.8995-39.4547 0-10.9005 10.8995-10.9005 28.5563 0 39.4557l119.7844 119.7855H287.908864c-15.4225 0-27.903 12.4795-27.903 27.902 0 15.3969 12.4805 27.904 27.903 27.904h379.083776L547.2082 659.3085c-10.9005 10.8995-10.9005 28.5573 0 39.4557 5.4487 5.4497 12.588 8.1756 19.7274 8.1756s14.2787-2.7259 19.7284-8.1756l167.4158-167.4158c10.9005-10.8984 10.9005-28.5563 0-39.4557L586.6639 324.4769z" p-id="2017" fill="#6E6E6E"></path></svg>