<?xml version="1.0" standalone="no"?><!DOCTYPE svg PUBLIC "-//W3C//DTD SVG 1.1//EN" "http://www.w3.org/Graphics/SVG/1.1/DTD/svg11.dtd"><svg t="1639378730721" class="icon" viewBox="0 0 1024 1024" version="1.1" xmlns="http://www.w3.org/2000/svg" p-id="19832" width="14" height="14" xmlns:xlink="http://www.w3.org/1999/xlink"><defs><style type="text/css"></style></defs><path d="M181.731 569.606l63.275-8.713A331.732 331.732 0 0 1 242.255 501l-63.809-2.835a395.86 395.86 0 0 0 3.285 71.441z" fill="#6E6E6E" p-id="19833"></path><path d="M569.205 906.945c52.791 0 104.019-10.346 152.263-30.752 46.581-19.703 88.409-47.902 124.321-83.814 35.912-35.912 64.111-77.74 83.814-124.322 20.405-48.244 30.752-99.471 30.752-152.263 0-52.791-10.346-104.019-30.752-152.263-19.703-46.581-47.902-88.409-83.814-124.321-35.912-35.912-77.74-64.111-124.321-83.814-48.244-20.405-99.472-30.752-152.263-30.752-101.406 0-197.547 38.644-270.712 108.813-72.938 69.952-115.572 163.96-120.047 264.706L242.255 501c7.783-175.224 151.397-312.483 326.95-312.483 180.462 0 327.278 146.817 327.278 327.278S749.667 843.074 569.205 843.074c-69.625 0-136.091-21.563-192.21-62.357L339.44 832.38c67.106 48.781 146.558 74.565 229.765 74.565z" fill="#6E6E6E" p-id="19834"></path><path d="M222.367 629.329c8.173 0 16.346-3.118 22.581-9.354l117.233-117.232c12.472-12.471 12.472-32.692 0-45.164-12.471-12.472-32.692-12.472-45.163 0L199.786 574.811c-12.472 12.472-12.472 32.693 0 45.164 6.236 6.236 14.409 9.354 22.581 9.354z" fill="#6E6E6E" p-id="19835"></path><path d="M215.632 631.398c8.174 0 16.345-3.117 22.581-9.354 12.472-12.471 12.472-32.692 0-45.164L120.981 459.648c-12.47-12.471-32.691-12.471-45.163 0-12.472 12.472-12.472 32.692 0 45.164l117.233 117.232c6.234 6.235 14.409 9.354 22.581 9.354z" fill="#6E6E6E" p-id="19836"></path></svg>