<?xml version="1.0" standalone="no"?><!DOCTYPE svg PUBLIC "-//W3C//DTD SVG 1.1//EN" "http://www.w3.org/Graphics/SVG/1.1/DTD/svg11.dtd"><svg t="1637029874284" class="icon" viewBox="0 0 1024 1024" version="1.1" xmlns="http://www.w3.org/2000/svg" p-id="2506" xmlns:xlink="http://www.w3.org/1999/xlink" width="16" height="16"><defs><style type="text/css"></style></defs><path d="M808.996571 694.857143l-94.537142-94.573714L766.171429 548.571429l181.028571 181.028571-181.028571 181.028571-51.712-51.748571L805.302857 768H365.714286v-73.142857h443.282285z m32.146286 32.146286v5.193142l2.596572-2.596571-2.596572-2.596571zM292.571429 146.285714H146.285714v731.428572h365.714286v73.142857H146.285714a73.142857 73.142857 0 0 1-73.142857-73.142857V146.285714a73.142857 73.142857 0 0 1 73.142857-73.142857h621.714286l182.857143 182.857143v256h-73.142857V292.571429l-146.285715-146.285715v292.571429a73.142857 73.142857 0 0 1-73.142857 73.142857h-292.571428a73.142857 73.142857 0 0 1-73.142857-73.142857V146.285714z m73.142857 292.571429h292.571428V146.285714h-292.571428v292.571429z m146.285714-219.428572h73.142857v146.285715h-73.142857V219.428571z" p-id="2507" fill="#2e5970"></path></svg>