<?xml version="1.0" standalone="no"?><!DOCTYPE svg PUBLIC "-//W3C//DTD SVG 1.1//EN" "http://www.w3.org/Graphics/SVG/1.1/DTD/svg11.dtd">
<svg t="1637911675863" class="icon" viewBox="0 0 1024 1024" version="1.1" xmlns="http://www.w3.org/2000/svg" p-id="16606" width="14" height="14" xmlns:xlink="http://www.w3.org/1999/xlink">
    <defs>
        <style type="text/css"></style>
    </defs>
    <path d="M236.307692 315.076923v-39.384615c0-149.661538 126.030769-275.692308 275.692308-275.692308s275.692308 126.030769 275.692308 275.692308v39.384615h78.76923c47.261538 0 78.769231 31.507692 78.769231 78.769231v551.384615c0 47.261538-31.507692 78.769231-78.769231 78.769231h-708.923076c-47.261538 0-78.769231-31.507692-78.769231-78.769231v-551.384615c0-47.261538 31.507692-78.769231 78.769231-78.769231h78.76923z m236.307693 385.969231v126.030769c0 23.630769 15.753846 39.384615 39.384615 39.384615s39.384615-15.753846 39.384615-39.384615v-126.030769c47.261538-15.753846 78.769231-63.015385 78.769231-110.276923 0-63.015385-55.138462-118.153846-118.153846-118.153846s-118.153846 55.138462-118.153846 118.153846c0 55.138462 31.507692 94.523077 78.769231 110.276923z m39.384615-622.276923c-110.276923 0-196.923077 86.646154-196.923077 196.923077v39.384615h393.846154v-39.384615c0-110.276923-86.646154-196.923077-196.923077-196.923077z"
          p-id="16607" fill="#6E6E6E"></path>
</svg>