<?xml version="1.0" standalone="no"?><!DOCTYPE svg PUBLIC "-//W3C//DTD SVG 1.1//EN" "http://www.w3.org/Graphics/SVG/1.1/DTD/svg11.dtd">
<svg t="1639365875912" class="icon" viewBox="0 0 1024 1024" version="1.1" xmlns="http://www.w3.org/2000/svg" p-id="3498" width="14" height="14" xmlns:xlink="http://www.w3.org/1999/xlink">
    <defs>
        <style type="text/css"></style>
    </defs>
    <path d="M536.508695 515.037173 533.082666 506.909052 528.910647 510.318708Z" p-id="3499" fill="#6E6E6E"></path>
    <path d="M431.339424 549.69553 194.782753 549.69553c-21.871123 0-39.666418 17.796318-39.666418 39.667441l0 236.553601c0 21.87317 17.795295 39.667441 39.666418 39.667441l236.556671 0c21.871123 0 39.665395-17.794271 39.665395-39.667441L471.004819 589.362972C471.004819 567.491849 453.210547 549.69553 431.339424 549.69553zM430.205601 824.780703 195.9176 824.780703 195.9176 590.497818l234.288001 0L430.205601 824.780703z"
          p-id="3500" fill="#6E6E6E"></path>
    <path d="M192.211185 508.24242l236.557694 0c21.871123 0 39.665395-17.794271 39.665395-39.664372l0-236.557694c0-21.871123-17.794271-39.664372-39.665395-39.664372L192.211185 192.355983c-21.871123 0-39.664372 17.793248-39.664372 39.664372l0 236.557694C152.547837 490.448148 170.340061 508.24242 192.211185 508.24242zM193.349101 233.155201l234.284931 0 0 234.285954L193.349101 467.441155 193.349101 233.155201z"
          p-id="3501" fill="#6E6E6E"></path>
    <path d="M813.097104 547.127032 576.541457 547.127032c-21.862937 0-39.646975 17.794271-39.646975 39.665395l0 236.555647c0 21.871123 17.784038 39.665395 39.646975 39.665395l236.555647 0c21.881356 0 39.683814-17.794271 39.683814-39.665395L852.780919 586.792427C852.780919 564.921303 834.978461 547.127032 813.097104 547.127032zM811.980677 822.213227 577.69677 822.213227 577.69677 587.927273l234.283908 0L811.980677 822.213227z"
          p-id="3502" fill="#6E6E6E"></path>
    <path d="M859.52553 314.327942 720.943264 175.745676c-7.087419-7.064906-16.504906-10.956539-26.51591-10.956539-10.008958 0-19.422352 3.891633-26.5374 10.981099L529.377274 314.303382c-7.110955 7.089465-11.026124 16.522302-11.026124 26.561959s3.91517 19.473517 11.000542 26.536376l138.539286 138.559752c7.080256 7.080256 16.501836 10.980076 26.529213 10.980076 10.016121 0 19.436678-3.891633 26.547633-10.980076L859.550089 367.380228C874.147552 352.73774 874.136296 328.939731 859.52553 314.327942zM694.429401 471.41363 563.900555 340.865341 694.429401 210.318076l130.547265 130.547265L694.429401 471.41363z"
          p-id="3503" fill="#6E6E6E"></path>
    <path d="M432.577624 550.656415 195.628004 550.656415c-21.911032 0-39.737026 17.825994-39.737026 39.739073l0 236.947574c0 21.908986 17.825994 39.730886 39.737026 39.730886l236.94962 0c21.906939 0 39.729863-17.821901 39.729863-39.730886L472.307488 590.395488C472.307488 568.482409 454.484563 550.656415 432.577624 550.656415z"
          p-id="3504" fill="#6E6E6E"></path>
    <path d="M193.054389 509.131673 429.996846 509.131673c21.911032 0 39.737026-17.823947 39.737026-39.729863L469.733872 232.452189c0-21.905916-17.824971-39.729863-39.737026-39.729863L193.054389 192.722326c-21.911032 0-39.73805 17.823947-39.73805 39.729863l0 236.94962C153.317363 491.307725 171.143357 509.131673 193.054389 509.131673z"
          p-id="3505" fill="#6E6E6E"></path>
    <path d="M814.956452 548.084846 578.007855 548.084846c-21.894659 0-39.709397 17.825994-39.709397 39.737026l0 236.941434c0 21.911032 17.813714 39.737026 39.709397 39.737026l236.948597 0c21.919219 0 39.752376-17.825994 39.752376-39.737026L854.708827 587.821873C854.707804 565.91084 836.874647 548.084846 814.956452 548.084846z"
          p-id="3506" fill="#6E6E6E"></path>
    <path d="M861.463672 314.897923 722.654232 176.09667c-7.098675-7.082302-16.533558-10.983145-26.565029-10.983145-10.027377 0-19.461237 3.900843-26.578332 11.002588L530.769994 314.871317c-7.124258 7.099698-11.047614 16.548908-11.047614 26.606984 0 10.060123 3.923356 19.508309 11.019984 26.579355l138.770554 138.79409c7.092535 7.092535 16.529465 10.998495 26.573215 10.998495 10.037611 0 19.472494-3.900843 26.587542-10.998495l138.817626-138.818649C876.107183 353.365027 876.095927 329.529155 861.463672 314.897923zM696.092273 472.244554 565.348534 341.478302l130.744763-130.757043 130.765229 130.757043L696.092273 472.244554z"
          p-id="3507" fill="#6E6E6E"></path>
    <path d="M537.607726 518.65149 534.18272 510.522346 530.009677 513.932002Z" p-id="3508" fill="#6E6E6E"></path>
</svg>